{"glyphs":{"0":{"ha":931,"x_min":0,"x_max":0,"o":"m 28 524 b 465 -17 28 204 229 -17 b 903 524 701 -17 903 204 b 465 1064 903 843 701 1064 b 28 524 229 1064 28 843 z m 297 524 b 465 814 297 690 363 814 b 633 524 568 814 633 690 b 465 233 633 357 568 233 b 297 524 363 233 297 357 z "},"1":{"ha":569,"x_min":0,"x_max":0,"o":"m 493 1047 l 119 1047 l 1 824 l 221 824 l 221 0 l 493 0 z "},"2":{"ha":790,"x_min":0,"x_max":0,"o":"m 271 688 b 389 813 275 756 314 813 b 490 701 453 813 490 767 b 371 482 490 633 438 568 l -10 0 l 789 0 l 789 224 l 474 224 l 572 349 b 764 719 664 465 764 589 b 394 1064 764 928 625 1064 b -11 688 160 1064 7 897 z "},"3":{"ha":808,"x_min":0,"x_max":0,"o":"m 404 442 b 539 329 479 442 539 404 b 404 204 539 256 481 204 b 258 354 315 204 260 269 l -7 354 b 406 -17 -1 133 161 -17 b 796 315 640 -17 796 129 b 661 549 796 422 742 500 b 760 750 708 586 760 658 b 415 1064 760 938 628 1064 b 38 719 196 1064 53 910 l 293 719 b 407 832 299 785 339 832 b 507 736 469 832 507 790 b 403 638 507 669 456 638 l 332 638 l 332 442 z "},"4":{"ha":914,"x_min":0,"x_max":0,"o":"m 749 0 l 749 233 l 900 233 l 900 450 l 749 450 l 749 1047 l 467 1047 l 14 442 l 14 233 l 489 233 l 489 0 z m 264 450 l 489 754 l 489 450 z "},"5":{"ha":731,"x_min":0,"x_max":0,"o":"m 278 222 b 29 354 176 222 81 288 l -28 101 b 300 -17 29 40 146 -17 b 721 381 539 -17 721 164 b 371 726 721 565 596 726 l 342 726 l 363 824 l 686 824 l 686 1047 l 176 1047 l 60 482 b 253 526 129 514 196 526 b 460 374 378 526 460 463 b 278 222 460 268 361 222 z "},"6":{"ha":836,"x_min":0,"x_max":0,"o":"m 822 379 b 488 750 822 579 685 732 l 718 1047 l 414 1047 l 160 714 b 14 378 54 575 14 488 b 418 -17 14 154 190 -17 b 822 379 650 -17 822 154 z m 419 536 b 576 378 507 536 576 465 b 419 219 576 292 507 219 b 263 378 331 219 263 292 b 419 536 263 465 331 536 z "},"7":{"ha":894,"x_min":0,"x_max":0,"o":"m 894 1047 l 21 1047 l 21 824 l 493 824 l 54 0 l 357 0 z "},"8":{"ha":800,"x_min":0,"x_max":0,"o":"m 400 1064 b 56 764 218 1064 56 944 b 165 544 56 665 107 589 b 1 301 101 514 1 431 b 400 -17 1 111 179 -17 b 799 301 621 -17 799 111 b 635 544 799 431 699 514 b 744 764 693 589 744 665 b 400 1064 744 944 582 1064 z m 400 660 b 296 761 340 660 296 700 b 400 864 296 822 340 864 b 504 761 460 864 504 822 b 400 660 504 700 460 660 z m 400 199 b 271 319 326 199 271 249 b 400 439 271 390 326 439 b 529 319 474 439 529 390 b 400 199 529 249 474 199 z "},"9":{"ha":836,"x_min":0,"x_max":0,"o":"m 14 668 b 349 297 14 468 151 315 l 118 0 l 422 0 l 676 333 b 822 669 782 472 822 560 b 418 1064 822 893 646 1064 b 14 668 186 1064 14 893 z m 417 511 b 260 669 329 511 260 582 b 417 828 260 756 329 828 b 574 669 506 828 574 756 b 417 511 574 582 506 511 z "}," ":{"ha":306,"x_min":0,"x_max":0,"o":""}," ":{"ha":306,"x_min":0,"x_max":0,"o":""}," ":{"ha":111,"x_min":0,"x_max":0,"o":""},"A":{"ha":1101,"x_min":0,"x_max":0,"o":"m 828 0 l 1115 0 l 686 1047 l 415 1047 l -14 0 l 267 0 l 343 196 l 751 196 z m 547 722 l 665 418 l 429 418 z "},"B":{"ha":896,"x_min":0,"x_max":0,"o":"m 690 554 b 814 764 753 590 814 660 b 444 1047 814 936 689 1047 l 81 1047 l 81 0 l 497 0 b 876 306 739 0 876 122 b 690 554 876 422 799 518 z m 346 824 l 429 824 b 550 724 504 824 550 788 b 429 624 550 660 504 624 l 346 624 z m 346 426 l 478 426 b 600 325 556 426 600 382 b 478 224 600 268 556 224 l 346 224 z "},"C":{"ha":865,"x_min":0,"x_max":0,"o":"m 300 524 b 585 808 300 688 419 808 b 821 713 688 808 771 767 l 821 1014 b 579 1064 749 1046 664 1064 b 28 524 274 1064 28 821 b 579 -17 28 226 274 -17 b 821 33 664 -17 749 0 l 821 335 b 585 239 771 281 688 239 b 300 524 419 239 300 360 z "},"D":{"ha":1029,"x_min":0,"x_max":0,"o":"m 81 1047 l 81 0 l 460 0 b 1001 524 760 0 1001 225 b 460 1047 1001 822 760 1047 z m 729 524 b 439 224 729 363 615 224 l 353 224 l 353 824 l 442 824 b 729 524 615 824 729 685 z "},"E":{"ha":790,"x_min":0,"x_max":0,"o":"m 81 0 l 735 0 l 735 224 l 347 224 l 347 424 l 721 424 l 721 647 l 347 647 l 347 824 l 735 824 l 735 1047 l 81 1047 z "},"F":{"ha":764,"x_min":0,"x_max":0,"o":"m 81 0 l 347 0 l 347 411 l 708 411 l 708 635 l 347 635 l 347 824 l 722 824 l 722 1047 l 81 1047 z "},"G":{"ha":1111,"x_min":0,"x_max":0,"o":"m 1081 586 l 558 586 l 558 363 l 797 363 b 575 231 750 268 674 231 b 300 524 422 231 300 363 b 569 807 300 685 422 807 b 801 646 671 807 760 744 l 1033 781 b 569 1064 944 954 774 1064 b 28 524 269 1064 28 821 b 569 -17 28 226 269 -17 b 1081 586 863 -17 1115 197 z "},"H":{"ha":1082,"x_min":0,"x_max":0,"o":"m 729 0 l 1001 0 l 1001 1047 l 729 1047 l 729 647 l 353 647 l 353 1047 l 81 1047 l 81 0 l 353 0 l 353 424 l 729 424 z "},"I":{"ha":433,"x_min":0,"x_max":0,"o":"m 353 1047 l 81 1047 l 81 0 l 353 0 z "},"J":{"ha":768,"x_min":0,"x_max":0,"o":"m 701 376 l 701 1047 l 428 1047 l 428 385 b 303 229 428 286 390 229 b 178 324 244 229 204 264 l -21 157 b 306 -17 44 51 171 -17 b 701 376 538 -17 701 129 z "},"K":{"ha":1043,"x_min":0,"x_max":0,"o":"m 354 1047 l 81 1047 l 81 0 l 354 0 l 354 315 l 439 415 l 746 0 l 1074 0 l 622 611 l 994 1047 l 674 1047 l 354 653 z "},"L":{"ha":749,"x_min":0,"x_max":0,"o":"m 81 0 l 721 0 l 721 224 l 353 224 l 353 1047 l 81 1047 z "},"M":{"ha":1432,"x_min":0,"x_max":0,"o":"m 629 0 l 799 0 l 1013 632 l 1153 0 l 1425 0 l 1192 1047 l 922 1047 l 718 453 l 514 1047 l 240 1047 l 7 0 l 275 0 l 415 632 z "},"N":{"ha":1114,"x_min":0,"x_max":0,"o":"m 81 1047 l 81 0 l 342 0 l 342 621 l 801 0 l 1033 0 l 1033 1047 l 772 1047 l 772 436 l 328 1047 z "},"O":{"ha":1139,"x_min":0,"x_max":0,"o":"m 28 524 b 569 -17 28 226 269 -17 b 1111 524 871 -17 1111 226 b 569 1064 1111 821 871 1064 b 28 524 269 1064 28 821 z m 839 524 b 569 236 839 354 718 236 b 300 524 421 236 300 354 b 569 811 300 693 421 811 b 839 524 718 811 839 693 z "},"P":{"ha":864,"x_min":0,"x_max":0,"o":"m 353 357 l 438 357 b 847 701 681 357 847 488 b 438 1047 847 917 681 1047 l 81 1047 l 81 0 l 353 0 z m 353 826 l 436 826 b 576 701 524 826 576 778 b 436 578 576 626 524 578 l 353 578 z "},"Q":{"ha":1139,"x_min":0,"x_max":0,"o":"m 28 524 b 569 -17 28 226 269 -17 b 808 42 654 -17 735 4 l 844 0 l 1147 0 l 986 183 b 1111 524 1064 276 1111 394 b 569 1064 1111 821 871 1064 b 28 524 269 1064 28 821 z m 839 524 b 811 385 839 471 829 424 l 719 489 l 415 489 l 635 239 b 569 232 614 235 592 232 b 300 524 421 232 300 354 b 569 811 300 693 421 811 b 839 524 718 811 839 693 z "},"R":{"ha":921,"x_min":0,"x_max":0,"o":"m 636 0 l 964 0 l 631 415 b 846 711 761 468 846 571 b 426 1047 846 925 675 1047 l 81 1047 l 81 0 l 350 0 l 350 375 z m 350 826 l 425 826 b 569 703 515 826 569 778 b 425 578 569 626 515 578 l 350 578 z "},"S":{"ha":801,"x_min":0,"x_max":0,"o":"m 794 336 b 299 750 794 729 299 590 b 394 836 299 803 340 836 b 514 733 460 836 501 785 l 769 821 b 406 1064 722 974 581 1064 b 32 731 179 1064 32 906 b 524 322 32 346 524 493 b 397 214 524 257 474 214 b 236 356 318 214 257 272 l -18 271 b 386 -17 25 97 190 -17 b 794 336 611 -17 794 128 z "},"T":{"ha":894,"x_min":0,"x_max":0,"o":"m 867 824 l 867 1047 l 28 1047 l 28 824 l 311 824 l 311 0 l 583 0 l 583 824 z "},"U":{"ha":1014,"x_min":0,"x_max":0,"o":"m 507 224 b 339 421 406 224 339 289 l 339 1047 l 67 1047 l 67 422 b 507 -17 67 143 257 -17 b 947 422 757 -17 947 143 l 947 1047 l 675 1047 l 675 421 b 507 224 675 289 608 224 z "},"V":{"ha":1101,"x_min":0,"x_max":0,"o":"m 554 350 l 288 1047 l -14 1047 l 422 0 l 679 0 l 1115 1047 l 821 1047 z "},"W":{"ha":1432,"x_min":0,"x_max":0,"o":"m 1446 1047 l 1163 1047 l 979 439 l 810 1047 l 625 1047 l 456 439 l 272 1047 l -14 1047 l 321 0 l 544 0 l 715 611 l 886 0 l 1111 0 z "},"X":{"ha":1071,"x_min":0,"x_max":0,"o":"m 19 1047 l 382 549 l -14 0 l 286 0 l 533 346 l 776 0 l 1085 0 l 685 553 l 1042 1047 l 742 1047 l 536 754 l 328 1047 z "},"Y":{"ha":1001,"x_min":0,"x_max":0,"o":"m 636 0 l 636 446 l 1029 1047 l 722 1047 l 500 700 l 279 1047 l -28 1047 l 364 446 l 364 0 z "},"Z":{"ha":947,"x_min":0,"x_max":0,"o":"m 493 824 l 11 0 l 904 0 l 904 224 l 442 224 l 924 1047 l 39 1047 l 39 824 z "},"Á":{"ha":1101,"x_min":0,"x_max":0,"o":"m 396 1183 l 486 1079 l 868 1279 l 706 1471 z m 828 0 l 1115 0 l 686 1047 l 415 1047 l -14 0 l 267 0 l 343 196 l 751 196 z m 547 722 l 665 418 l 429 418 z "},"Ă":{"ha":1101,"x_min":0,"x_max":0,"o":"m 551 1094 b 833 1367 701 1094 824 1215 l 650 1393 b 551 1285 640 1321 599 1285 b 453 1393 504 1285 463 1321 l 269 1367 b 551 1094 279 1215 401 1094 z m 828 0 l 1115 0 l 686 1047 l 415 1047 l -14 0 l 267 0 l 343 196 l 751 196 z m 547 722 l 665 418 l 429 418 z "},"Â":{"ha":1101,"x_min":0,"x_max":0,"o":"m 551 1467 l 242 1181 l 360 1083 l 551 1207 l 743 1083 l 861 1181 z m 828 0 l 1115 0 l 686 1047 l 415 1047 l -14 0 l 267 0 l 343 196 l 751 196 z m 547 722 l 665 418 l 429 418 z "},"Ä":{"ha":1101,"x_min":0,"x_max":0,"o":"m 378 1118 b 519 1261 454 1118 519 1181 b 378 1404 519 1342 454 1404 b 233 1261 299 1404 233 1342 b 378 1118 233 1181 299 1118 z m 725 1118 b 869 1261 804 1118 869 1181 b 725 1404 869 1342 804 1404 b 583 1261 649 1404 583 1342 b 725 1118 583 1181 649 1118 z m 828 0 l 1115 0 l 686 1047 l 415 1047 l -14 0 l 267 0 l 343 196 l 751 196 z m 547 722 l 665 418 l 429 418 z "},"À":{"ha":1101,"x_min":0,"x_max":0,"o":"m 735 1183 l 425 1471 l 263 1279 l 644 1079 z m 828 0 l 1115 0 l 686 1047 l 415 1047 l -14 0 l 267 0 l 343 196 l 751 196 z m 547 722 l 665 418 l 429 418 z "},"Ā":{"ha":1101,"x_min":0,"x_max":0,"o":"m 301 1139 l 801 1139 l 801 1338 l 301 1338 z m 828 0 l 1115 0 l 686 1047 l 415 1047 l -14 0 l 267 0 l 343 196 l 751 196 z m 547 722 l 665 418 l 429 418 z "},"Ą":{"ha":1101,"x_min":0,"x_max":0,"o":"m 1094 -268 l 1010 -135 b 940 -179 988 -162 965 -179 b 900 -139 915 -179 900 -162 b 1018 0 900 -104 932 -65 l 1115 0 l 686 1047 l 415 1047 l -14 0 l 267 0 l 343 196 l 751 196 l 825 7 b 706 -200 756 -53 706 -119 b 890 -364 706 -306 792 -364 b 1094 -268 978 -364 1049 -326 z m 547 722 l 665 418 l 429 418 z "},"Å":{"ha":1101,"x_min":0,"x_max":0,"o":"m 781 1075 b 558 1290 781 1196 686 1290 b 336 1075 431 1290 336 1196 b 375 950 336 1028 350 985 l -14 0 l 267 0 l 343 196 l 751 196 l 828 0 l 1115 0 l 731 938 b 781 1075 763 975 781 1022 z m 472 1075 b 558 1161 472 1121 510 1161 b 644 1075 607 1161 644 1121 b 558 989 644 1029 607 989 b 472 1075 510 989 472 1029 z m 547 722 l 665 418 l 429 418 z "},"Ã":{"ha":1101,"x_min":0,"x_max":0,"o":"m 642 1317 b 425 1375 575 1317 525 1375 b 267 1131 317 1375 267 1263 l 419 1131 b 461 1185 419 1163 436 1185 b 678 1125 533 1185 579 1125 b 836 1369 786 1125 836 1239 l 683 1369 b 642 1317 683 1338 667 1317 z m 828 0 l 1115 0 l 686 1047 l 415 1047 l -14 0 l 267 0 l 343 196 l 751 196 z m 547 722 l 665 418 l 429 418 z "},"Æ":{"ha":1440,"x_min":0,"x_max":0,"o":"m 744 0 l 1399 0 l 1399 224 l 1011 224 l 1011 424 l 1385 424 l 1385 647 l 1011 647 l 1011 824 l 1399 824 l 1399 1047 l 578 1047 l -10 0 l 282 0 l 404 224 l 744 224 z m 526 446 l 744 842 l 744 446 z "},"Ǽ":{"ha":1440,"x_min":0,"x_max":0,"o":"m 829 1183 l 919 1079 l 1301 1279 l 1139 1471 z m 744 0 l 1399 0 l 1399 224 l 1011 224 l 1011 424 l 1385 424 l 1385 647 l 1011 647 l 1011 824 l 1399 824 l 1399 1047 l 578 1047 l -10 0 l 282 0 l 404 224 l 744 224 z m 526 446 l 744 842 l 744 446 z "},"Ć":{"ha":865,"x_min":0,"x_max":0,"o":"m 372 1183 l 463 1079 l 844 1279 l 682 1471 z m 300 524 b 585 808 300 688 419 808 b 821 713 688 808 771 767 l 821 1014 b 579 1064 749 1046 664 1064 b 28 524 274 1064 28 821 b 579 -17 28 226 274 -17 b 821 33 664 -17 749 0 l 821 335 b 585 239 771 281 688 239 b 300 524 419 239 300 360 z "},"Č":{"ha":865,"x_min":0,"x_max":0,"o":"m 556 1083 l 865 1369 l 747 1467 l 556 1343 l 364 1467 l 246 1369 z m 300 524 b 585 808 300 688 419 808 b 821 713 688 808 771 767 l 821 1014 b 579 1064 749 1046 664 1064 b 28 524 274 1064 28 821 b 579 -17 28 226 274 -17 b 821 33 664 -17 749 0 l 821 335 b 585 239 771 281 688 239 b 300 524 419 239 300 360 z "},"Ç":{"ha":865,"x_min":0,"x_max":0,"o":"m 300 524 b 585 808 300 688 419 808 b 821 713 688 808 771 767 l 821 1014 b 579 1064 749 1046 664 1064 b 28 524 274 1064 28 821 b 579 -17 28 226 274 -17 b 821 33 664 -17 749 0 l 821 335 b 585 239 771 281 688 239 b 300 524 419 239 300 360 z m 392 -283 l 514 -365 l 724 -167 l 528 -35 z "},"Ĉ":{"ha":865,"x_min":0,"x_max":0,"o":"m 528 1467 l 218 1181 l 336 1083 l 528 1207 l 719 1083 l 838 1181 z m 300 524 b 585 808 300 688 419 808 b 821 713 688 808 771 767 l 821 1014 b 579 1064 749 1046 664 1064 b 28 524 274 1064 28 821 b 579 -17 28 226 274 -17 b 821 33 664 -17 749 0 l 821 335 b 585 239 771 281 688 239 b 300 524 419 239 300 360 z "},"Ċ":{"ha":865,"x_min":0,"x_max":0,"o":"m 528 1117 b 678 1265 610 1117 678 1182 b 528 1414 678 1349 610 1414 b 378 1265 446 1414 378 1349 b 528 1117 378 1182 446 1117 z m 300 524 b 585 808 300 688 419 808 b 821 713 688 808 771 767 l 821 1014 b 579 1064 749 1046 664 1064 b 28 524 274 1064 28 821 b 579 -17 28 226 274 -17 b 821 33 664 -17 749 0 l 821 335 b 585 239 771 281 688 239 b 300 524 419 239 300 360 z "},"Ď":{"ha":1029,"x_min":0,"x_max":0,"o":"m 547 1083 l 857 1369 l 739 1467 l 547 1343 l 356 1467 l 238 1369 z m 81 1047 l 81 0 l 460 0 b 1001 524 760 0 1001 225 b 460 1047 1001 822 760 1047 z m 729 524 b 439 224 729 363 615 224 l 353 224 l 353 824 l 442 824 b 729 524 615 824 729 685 z "},"Đ":{"ha":1029,"x_min":0,"x_max":0,"o":"m 11 424 l 94 424 l 94 0 l 474 0 b 1015 524 774 0 1015 225 b 474 1047 1015 822 774 1047 l 94 1047 l 94 647 l 11 647 z m 743 524 b 453 224 743 363 629 224 l 367 224 l 367 424 l 506 424 l 506 647 l 367 647 l 367 824 l 456 824 b 743 524 629 824 743 685 z "},"É":{"ha":790,"x_min":0,"x_max":0,"o":"m 268 1183 l 358 1079 l 740 1279 l 578 1471 z m 81 0 l 735 0 l 735 224 l 347 224 l 347 424 l 721 424 l 721 647 l 347 647 l 347 824 l 735 824 l 735 1047 l 81 1047 z "},"Ĕ":{"ha":790,"x_min":0,"x_max":0,"o":"m 424 1094 b 706 1367 574 1094 696 1215 l 522 1393 b 424 1285 513 1321 471 1285 b 325 1393 376 1285 335 1321 l 142 1367 b 424 1094 151 1215 274 1094 z m 81 0 l 735 0 l 735 224 l 347 224 l 347 424 l 721 424 l 721 647 l 347 647 l 347 824 l 735 824 l 735 1047 l 81 1047 z "},"Ě":{"ha":790,"x_min":0,"x_max":0,"o":"m 451 1083 l 761 1369 l 643 1467 l 451 1343 l 260 1467 l 142 1369 z m 81 0 l 735 0 l 735 224 l 347 224 l 347 424 l 721 424 l 721 647 l 347 647 l 347 824 l 735 824 l 735 1047 l 81 1047 z "},"Ê":{"ha":790,"x_min":0,"x_max":0,"o":"m 424 1467 l 114 1181 l 232 1083 l 424 1207 l 615 1083 l 733 1181 z m 81 0 l 735 0 l 735 224 l 347 224 l 347 424 l 721 424 l 721 647 l 347 647 l 347 824 l 735 824 l 735 1047 l 81 1047 z "},"Ë":{"ha":790,"x_min":0,"x_max":0,"o":"m 250 1118 b 392 1261 326 1118 392 1181 b 250 1404 392 1342 326 1404 b 106 1261 171 1404 106 1342 b 250 1118 106 1181 171 1118 z m 597 1118 b 742 1261 676 1118 742 1181 b 597 1404 742 1342 676 1404 b 456 1261 521 1404 456 1342 b 597 1118 456 1181 521 1118 z m 81 0 l 735 0 l 735 224 l 347 224 l 347 424 l 721 424 l 721 647 l 347 647 l 347 824 l 735 824 l 735 1047 l 81 1047 z "},"Ė":{"ha":790,"x_min":0,"x_max":0,"o":"m 424 1117 b 574 1265 506 1117 574 1182 b 424 1414 574 1349 506 1414 b 274 1265 342 1414 274 1349 b 424 1117 274 1182 342 1117 z m 81 0 l 735 0 l 735 224 l 347 224 l 347 424 l 721 424 l 721 647 l 347 647 l 347 824 l 735 824 l 735 1047 l 81 1047 z "},"È":{"ha":790,"x_min":0,"x_max":0,"o":"m 607 1183 l 297 1471 l 135 1279 l 517 1079 z m 81 0 l 735 0 l 735 224 l 347 224 l 347 424 l 721 424 l 721 647 l 347 647 l 347 824 l 735 824 l 735 1047 l 81 1047 z "},"Ē":{"ha":790,"x_min":0,"x_max":0,"o":"m 174 1139 l 674 1139 l 674 1338 l 174 1338 z m 81 0 l 735 0 l 735 224 l 347 224 l 347 424 l 721 424 l 721 647 l 347 647 l 347 824 l 735 824 l 735 1047 l 81 1047 z "},"Ę":{"ha":790,"x_min":0,"x_max":0,"o":"m 81 0 l 436 0 b 324 -200 369 -58 324 -122 b 508 -364 324 -306 410 -364 b 713 -268 596 -364 667 -326 l 628 -135 b 558 -179 606 -162 583 -179 b 518 -139 533 -179 518 -162 b 636 0 518 -104 550 -65 l 735 0 l 735 224 l 347 224 l 347 424 l 721 424 l 721 647 l 347 647 l 347 824 l 735 824 l 735 1047 l 81 1047 z "},"Ð":{"ha":1029,"x_min":0,"x_max":0,"o":"m 11 424 l 94 424 l 94 0 l 474 0 b 1015 524 774 0 1015 225 b 474 1047 1015 822 774 1047 l 94 1047 l 94 647 l 11 647 z m 743 524 b 453 224 743 363 629 224 l 367 224 l 367 424 l 506 424 l 506 647 l 367 647 l 367 824 l 456 824 b 743 524 629 824 743 685 z "},"Ğ":{"ha":1111,"x_min":0,"x_max":0,"o":"m 556 1094 b 838 1367 706 1094 828 1215 l 654 1393 b 556 1285 644 1321 603 1285 b 457 1393 508 1285 467 1321 l 274 1367 b 556 1094 283 1215 406 1094 z m 1081 586 l 558 586 l 558 363 l 797 363 b 575 231 750 268 674 231 b 300 524 422 231 300 363 b 569 807 300 685 422 807 b 801 646 671 807 760 744 l 1033 781 b 569 1064 944 954 774 1064 b 28 524 269 1064 28 821 b 569 -17 28 226 269 -17 b 1081 586 863 -17 1115 197 z "},"Ĝ":{"ha":1111,"x_min":0,"x_max":0,"o":"m 556 1467 l 246 1181 l 364 1083 l 556 1207 l 747 1083 l 865 1181 z m 1081 586 l 558 586 l 558 363 l 797 363 b 575 231 750 268 674 231 b 300 524 422 231 300 363 b 569 807 300 685 422 807 b 801 646 671 807 760 744 l 1033 781 b 569 1064 944 954 774 1064 b 28 524 269 1064 28 821 b 569 -17 28 226 269 -17 b 1081 586 863 -17 1115 197 z "},"Ģ":{"ha":1111,"x_min":0,"x_max":0,"o":"m 1081 586 l 558 586 l 558 363 l 797 363 b 575 231 750 268 674 231 b 300 524 422 231 300 363 b 569 807 300 685 422 807 b 801 646 671 807 760 744 l 1033 781 b 569 1064 944 954 774 1064 b 28 524 269 1064 28 821 b 569 -17 28 226 269 -17 b 1081 586 863 -17 1115 197 z m 419 -283 l 542 -365 l 751 -167 l 556 -35 z "},"Ġ":{"ha":1111,"x_min":0,"x_max":0,"o":"m 556 1117 b 706 1265 638 1117 706 1182 b 556 1414 706 1349 638 1414 b 406 1265 474 1414 406 1349 b 556 1117 406 1182 474 1117 z m 1081 586 l 558 586 l 558 363 l 797 363 b 575 231 750 268 674 231 b 300 524 422 231 300 363 b 569 807 300 685 422 807 b 801 646 671 807 760 744 l 1033 781 b 569 1064 944 954 774 1064 b 28 524 269 1064 28 821 b 569 -17 28 226 269 -17 b 1081 586 863 -17 1115 197 z "},"Ħ":{"ha":1110,"x_min":0,"x_max":0,"o":"m 743 0 l 1015 0 l 1015 640 l 1099 640 l 1099 864 l 1015 864 l 1015 1047 l 743 1047 l 743 864 l 367 864 l 367 1047 l 94 1047 l 94 864 l 11 864 l 11 640 l 94 640 l 94 0 l 367 0 l 367 285 l 743 285 z m 367 508 l 367 640 l 743 640 l 743 508 z "},"Ĥ":{"ha":1082,"x_min":0,"x_max":0,"o":"m 542 1467 l 232 1181 l 350 1083 l 542 1207 l 733 1083 l 851 1181 z m 729 0 l 1001 0 l 1001 1047 l 729 1047 l 729 647 l 353 647 l 353 1047 l 81 1047 l 81 0 l 353 0 l 353 424 l 729 424 z "},"Í":{"ha":433,"x_min":0,"x_max":0,"o":"m 61 1183 l 151 1079 l 533 1279 l 371 1471 z m 353 1047 l 81 1047 l 81 0 l 353 0 z "},"Ĭ":{"ha":433,"x_min":0,"x_max":0,"o":"m 217 1094 b 499 1367 367 1094 489 1215 l 315 1393 b 217 1285 306 1321 264 1285 b 118 1393 169 1285 128 1321 l -65 1367 b 217 1094 -56 1215 67 1094 z m 353 1047 l 81 1047 l 81 0 l 353 0 z "},"Î":{"ha":433,"x_min":0,"x_max":0,"o":"m 217 1467 l -93 1181 l 25 1083 l 217 1207 l 408 1083 l 526 1181 z m 353 1047 l 81 1047 l 81 0 l 353 0 z "},"Ï":{"ha":433,"x_min":0,"x_max":0,"o":"m 43 1118 b 185 1261 119 1118 185 1181 b 43 1404 185 1342 119 1404 b -101 1261 -36 1404 -101 1342 b 43 1118 -101 1181 -36 1118 z m 390 1118 b 535 1261 469 1118 535 1181 b 390 1404 535 1342 469 1404 b 249 1261 314 1404 249 1342 b 390 1118 249 1181 314 1118 z m 353 1047 l 81 1047 l 81 0 l 353 0 z "},"İ":{"ha":433,"x_min":0,"x_max":0,"o":"m 217 1117 b 367 1265 299 1117 367 1182 b 217 1414 367 1349 299 1414 b 67 1265 135 1414 67 1349 b 217 1117 67 1182 135 1117 z m 353 1047 l 81 1047 l 81 0 l 353 0 z "},"Ì":{"ha":433,"x_min":0,"x_max":0,"o":"m 400 1183 l 90 1471 l -72 1279 l 310 1079 z m 353 1047 l 81 1047 l 81 0 l 353 0 z "},"Ī":{"ha":433,"x_min":0,"x_max":0,"o":"m -33 1139 l 467 1139 l 467 1338 l -33 1338 z m 353 1047 l 81 1047 l 81 0 l 353 0 z "},"Į":{"ha":433,"x_min":0,"x_max":0,"o":"m 353 1047 l 81 1047 l 81 0 l 119 0 b 7 -200 53 -58 7 -122 b 192 -364 7 -306 93 -364 b 396 -268 279 -364 350 -326 l 311 -135 b 242 -179 289 -162 267 -179 b 201 -139 217 -179 201 -162 b 319 0 201 -104 233 -65 l 353 0 z "},"Ĩ":{"ha":433,"x_min":0,"x_max":0,"o":"m 307 1317 b 90 1375 240 1317 190 1375 b -68 1131 -18 1375 -68 1263 l 85 1131 b 126 1185 85 1163 101 1185 b 343 1125 199 1185 244 1125 b 501 1369 451 1125 501 1239 l 349 1369 b 307 1317 349 1338 332 1317 z m 353 1047 l 81 1047 l 81 0 l 353 0 z "},"Ĵ":{"ha":768,"x_min":0,"x_max":0,"o":"m 564 1467 l 254 1181 l 372 1083 l 564 1207 l 756 1083 l 874 1181 z m 701 376 l 701 1047 l 428 1047 l 428 385 b 303 229 428 286 390 229 b 178 324 244 229 204 264 l -21 157 b 306 -17 44 51 171 -17 b 701 376 538 -17 701 129 z "},"Ĳ":{"ha":1201,"x_min":0,"x_max":0,"o":"m 353 1047 l 81 1047 l 81 0 l 353 0 z m 1135 376 l 1135 1047 l 861 1047 l 861 385 b 736 229 861 286 824 229 b 611 324 678 229 638 264 l 413 157 b 739 -17 478 51 604 -17 b 1135 376 971 -17 1135 129 z "},"Ķ":{"ha":1043,"x_min":0,"x_max":0,"o":"m 354 1047 l 81 1047 l 81 0 l 354 0 l 354 315 l 439 415 l 746 0 l 1074 0 l 622 611 l 994 1047 l 674 1047 l 354 653 z m 419 -283 l 542 -365 l 751 -167 l 556 -35 z "},"Ĺ":{"ha":749,"x_min":0,"x_max":0,"o":"m 74 1183 l 164 1079 l 546 1279 l 383 1471 z m 81 0 l 721 0 l 721 224 l 353 224 l 353 1047 l 81 1047 z "},"Ľ":{"ha":749,"x_min":0,"x_max":0,"o":"m 431 711 l 581 669 l 732 994 l 504 1064 z m 81 0 l 721 0 l 721 224 l 353 224 l 353 1047 l 81 1047 z "},"Ļ":{"ha":749,"x_min":0,"x_max":0,"o":"m 81 0 l 721 0 l 721 224 l 353 224 l 353 1047 l 81 1047 z m 264 -283 l 386 -365 l 596 -167 l 400 -35 z "},"Ŀ":{"ha":749,"x_min":0,"x_max":0,"o":"m 81 0 l 721 0 l 721 224 l 353 224 l 353 1047 l 81 1047 z m 590 446 b 740 594 672 446 740 511 b 590 743 740 678 672 743 b 440 594 508 743 440 678 b 590 446 440 511 508 446 z "},"Ł":{"ha":757,"x_min":0,"x_max":0,"o":"m 372 663 l 372 1047 l 100 1047 l 100 571 l 14 533 l 14 315 l 100 353 l 100 0 l 740 0 l 740 224 l 372 224 l 372 444 l 561 525 l 561 743 z "},"Ń":{"ha":1114,"x_min":0,"x_max":0,"o":"m 401 1183 l 492 1079 l 874 1279 l 711 1471 z m 81 1047 l 81 0 l 342 0 l 342 621 l 801 0 l 1033 0 l 1033 1047 l 772 1047 l 772 436 l 328 1047 z "},"Ň":{"ha":1114,"x_min":0,"x_max":0,"o":"m 585 1083 l 894 1369 l 776 1467 l 585 1343 l 393 1467 l 275 1369 z m 81 1047 l 81 0 l 342 0 l 342 621 l 801 0 l 1033 0 l 1033 1047 l 772 1047 l 772 436 l 328 1047 z "},"Ņ":{"ha":1114,"x_min":0,"x_max":0,"o":"m 81 1047 l 81 0 l 342 0 l 342 621 l 801 0 l 1033 0 l 1033 1047 l 772 1047 l 772 436 l 328 1047 z m 421 -283 l 543 -365 l 753 -167 l 557 -35 z "},"Ñ":{"ha":1114,"x_min":0,"x_max":0,"o":"m 647 1317 b 431 1375 581 1317 531 1375 b 272 1131 322 1375 272 1263 l 425 1131 b 467 1185 425 1163 442 1185 b 683 1125 539 1185 585 1125 b 842 1369 792 1125 842 1239 l 689 1369 b 647 1317 689 1338 672 1317 z m 81 1047 l 81 0 l 342 0 l 342 621 l 801 0 l 1033 0 l 1033 1047 l 772 1047 l 772 436 l 328 1047 z "},"Ŋ":{"ha":1114,"x_min":0,"x_max":0,"o":"m 81 1047 l 81 0 l 346 0 l 346 614 l 775 36 l 775 -347 l 1033 -347 l 1033 1047 l 768 1047 l 768 443 l 328 1047 z "},"Ó":{"ha":1139,"x_min":0,"x_max":0,"o":"m 414 1183 l 504 1079 l 886 1279 l 724 1471 z m 28 524 b 569 -17 28 226 269 -17 b 1111 524 871 -17 1111 226 b 569 1064 1111 821 871 1064 b 28 524 269 1064 28 821 z m 839 524 b 569 236 839 354 718 236 b 300 524 421 236 300 354 b 569 811 300 693 421 811 b 839 524 718 811 839 693 z "},"Ŏ":{"ha":1139,"x_min":0,"x_max":0,"o":"m 569 1094 b 851 1367 719 1094 842 1215 l 668 1393 b 569 1285 658 1321 617 1285 b 471 1393 522 1285 481 1321 l 288 1367 b 569 1094 297 1215 419 1094 z m 28 524 b 569 -17 28 226 269 -17 b 1111 524 871 -17 1111 226 b 569 1064 1111 821 871 1064 b 28 524 269 1064 28 821 z m 839 524 b 569 236 839 354 718 236 b 300 524 421 236 300 354 b 569 811 300 693 421 811 b 839 524 718 811 839 693 z "},"Ô":{"ha":1139,"x_min":0,"x_max":0,"o":"m 569 1467 l 260 1181 l 378 1083 l 569 1207 l 761 1083 l 879 1181 z m 28 524 b 569 -17 28 226 269 -17 b 1111 524 871 -17 1111 226 b 569 1064 1111 821 871 1064 b 28 524 269 1064 28 821 z m 839 524 b 569 236 839 354 718 236 b 300 524 421 236 300 354 b 569 811 300 693 421 811 b 839 524 718 811 839 693 z "},"Ö":{"ha":1139,"x_min":0,"x_max":0,"o":"m 396 1118 b 538 1261 472 1118 538 1181 b 396 1404 538 1342 472 1404 b 251 1261 317 1404 251 1342 b 396 1118 251 1181 317 1118 z m 743 1118 b 888 1261 822 1118 888 1181 b 743 1404 888 1342 822 1404 b 601 1261 667 1404 601 1342 b 743 1118 601 1181 667 1118 z m 28 524 b 569 -17 28 226 269 -17 b 1111 524 871 -17 1111 226 b 569 1064 1111 821 871 1064 b 28 524 269 1064 28 821 z m 839 524 b 569 236 839 354 718 236 b 300 524 421 236 300 354 b 569 811 300 693 421 811 b 839 524 718 811 839 693 z "},"Ò":{"ha":1139,"x_min":0,"x_max":0,"o":"m 753 1183 l 443 1471 l 281 1279 l 663 1079 z m 28 524 b 569 -17 28 226 269 -17 b 1111 524 871 -17 1111 226 b 569 1064 1111 821 871 1064 b 28 524 269 1064 28 821 z m 839 524 b 569 236 839 354 718 236 b 300 524 421 236 300 354 b 569 811 300 693 421 811 b 839 524 718 811 839 693 z "},"Ő":{"ha":1139,"x_min":0,"x_max":0,"o":"m 257 1181 l 364 1093 l 635 1286 l 460 1443 z m 610 1181 l 717 1093 l 988 1286 l 813 1443 z m 28 524 b 569 -17 28 226 269 -17 b 1111 524 871 -17 1111 226 b 569 1064 1111 821 871 1064 b 28 524 269 1064 28 821 z m 839 524 b 569 236 839 354 718 236 b 300 524 421 236 300 354 b 569 811 300 693 421 811 b 839 524 718 811 839 693 z "},"Ō":{"ha":1139,"x_min":0,"x_max":0,"o":"m 319 1139 l 819 1139 l 819 1338 l 319 1338 z m 28 524 b 569 -17 28 226 269 -17 b 1111 524 871 -17 1111 226 b 569 1064 1111 821 871 1064 b 28 524 269 1064 28 821 z m 839 524 b 569 236 839 354 718 236 b 300 524 421 236 300 354 b 569 811 300 693 421 811 b 839 524 718 811 839 693 z "},"Ø":{"ha":1139,"x_min":0,"x_max":0,"o":"m 1111 524 b 1014 832 1111 638 1075 744 l 1111 936 l 965 1064 l 876 969 b 569 1064 790 1029 685 1064 b 28 524 269 1064 28 821 b 125 215 28 410 64 303 l 28 111 l 174 -17 l 263 79 b 569 -17 350 18 456 -17 b 1111 524 871 -17 1111 226 z m 294 524 b 569 817 294 696 418 817 b 690 789 613 817 654 807 l 322 392 b 294 524 304 431 294 475 z m 844 524 b 569 231 844 351 721 231 b 449 258 526 231 485 240 l 817 656 b 844 524 835 617 844 572 z "},"Ǿ":{"ha":1139,"x_min":0,"x_max":0,"o":"m 414 1183 l 504 1079 l 886 1279 l 724 1471 z m 1111 524 b 1014 832 1111 638 1075 744 l 1111 936 l 965 1064 l 876 969 b 569 1064 790 1029 685 1064 b 28 524 269 1064 28 821 b 125 215 28 410 64 303 l 28 111 l 174 -17 l 263 79 b 569 -17 350 18 456 -17 b 1111 524 871 -17 1111 226 z m 294 524 b 569 817 294 696 418 817 b 690 789 613 817 654 807 l 322 392 b 294 524 304 431 294 475 z m 844 524 b 569 231 844 351 721 231 b 449 258 526 231 485 240 l 817 656 b 844 524 835 617 844 572 z "},"Õ":{"ha":1139,"x_min":0,"x_max":0,"o":"m 660 1317 b 443 1375 593 1317 543 1375 b 285 1131 335 1375 285 1263 l 438 1131 b 479 1185 438 1163 454 1185 b 696 1125 551 1185 597 1125 b 854 1369 804 1125 854 1239 l 701 1369 b 660 1317 701 1338 685 1317 z m 28 524 b 569 -17 28 226 269 -17 b 1111 524 871 -17 1111 226 b 569 1064 1111 821 871 1064 b 28 524 269 1064 28 821 z m 839 524 b 569 236 839 354 718 236 b 300 524 421 236 300 354 b 569 811 300 693 421 811 b 839 524 718 811 839 693 z "},"Œ":{"ha":1358,"x_min":0,"x_max":0,"o":"m 28 524 b 569 0 28 225 269 0 l 1317 0 l 1317 224 l 929 224 l 929 424 l 1303 424 l 1303 647 l 929 647 l 929 824 l 1317 824 l 1317 1047 l 569 1047 b 28 524 269 1047 28 822 z m 300 524 b 590 824 300 685 414 824 l 663 824 l 663 224 l 588 224 b 300 524 414 224 300 363 z "},"Ŕ":{"ha":921,"x_min":0,"x_max":0,"o":"m 293 1183 l 383 1079 l 765 1279 l 603 1471 z m 636 0 l 964 0 l 631 415 b 846 711 761 468 846 571 b 426 1047 846 925 675 1047 l 81 1047 l 81 0 l 350 0 l 350 375 z m 350 826 l 425 826 b 569 703 515 826 569 778 b 425 578 569 626 515 578 l 350 578 z "},"Ř":{"ha":921,"x_min":0,"x_max":0,"o":"m 476 1083 l 786 1369 l 668 1467 l 476 1343 l 285 1467 l 167 1369 z m 636 0 l 964 0 l 631 415 b 846 711 761 468 846 571 b 426 1047 846 925 675 1047 l 81 1047 l 81 0 l 350 0 l 350 375 z m 350 826 l 425 826 b 569 703 515 826 569 778 b 425 578 569 626 515 578 l 350 578 z "},"Ŗ":{"ha":921,"x_min":0,"x_max":0,"o":"m 636 0 l 964 0 l 631 415 b 846 711 761 468 846 571 b 426 1047 846 925 675 1047 l 81 1047 l 81 0 l 350 0 l 350 375 z m 350 826 l 425 826 b 569 703 515 826 569 778 b 425 578 569 626 515 578 l 350 578 z m 351 -283 l 474 -365 l 683 -167 l 488 -35 z "},"Ś":{"ha":801,"x_min":0,"x_max":0,"o":"m 256 1183 l 346 1079 l 728 1279 l 565 1471 z m 794 336 b 299 750 794 729 299 590 b 394 836 299 803 340 836 b 514 733 460 836 501 785 l 769 821 b 406 1064 722 974 581 1064 b 32 731 179 1064 32 906 b 524 322 32 346 524 493 b 397 214 524 257 474 214 b 236 356 318 214 257 272 l -18 271 b 386 -17 25 97 190 -17 b 794 336 611 -17 794 128 z "},"Š":{"ha":801,"x_min":0,"x_max":0,"o":"m 439 1083 l 749 1369 l 631 1467 l 439 1343 l 247 1467 l 129 1369 z m 794 336 b 299 750 794 729 299 590 b 394 836 299 803 340 836 b 514 733 460 836 501 785 l 769 821 b 406 1064 722 974 581 1064 b 32 731 179 1064 32 906 b 524 322 32 346 524 493 b 397 214 524 257 474 214 b 236 356 318 214 257 272 l -18 271 b 386 -17 25 97 190 -17 b 794 336 611 -17 794 128 z "},"Ş":{"ha":801,"x_min":0,"x_max":0,"o":"m 794 336 b 299 750 794 729 299 590 b 394 836 299 803 340 836 b 514 733 460 836 501 785 l 769 821 b 406 1064 722 974 581 1064 b 32 731 179 1064 32 906 b 524 322 32 346 524 493 b 397 214 524 257 474 214 b 236 356 318 214 257 272 l -18 271 b 386 -17 25 97 190 -17 b 794 336 611 -17 794 128 z m 256 -283 l 378 -365 l 588 -167 l 392 -35 z "},"Ŝ":{"ha":801,"x_min":0,"x_max":0,"o":"m 411 1467 l 101 1181 l 219 1083 l 411 1207 l 603 1083 l 721 1181 z m 794 336 b 299 750 794 729 299 590 b 394 836 299 803 340 836 b 514 733 460 836 501 785 l 769 821 b 406 1064 722 974 581 1064 b 32 731 179 1064 32 906 b 524 322 32 346 524 493 b 397 214 524 257 474 214 b 236 356 318 214 257 272 l -18 271 b 386 -17 25 97 190 -17 b 794 336 611 -17 794 128 z "},"Ș":{"ha":801,"x_min":0,"x_max":0,"o":"m 794 336 b 299 750 794 729 299 590 b 394 836 299 803 340 836 b 514 733 460 836 501 785 l 769 821 b 406 1064 722 974 581 1064 b 32 731 179 1064 32 906 b 524 322 32 346 524 493 b 397 214 524 257 474 214 b 236 356 318 214 257 272 l -18 271 b 386 -17 25 97 190 -17 b 794 336 611 -17 794 128 z m 256 -283 l 378 -365 l 588 -167 l 392 -35 z "},"ẞ":{"ha":976,"x_min":0,"x_max":0,"o":"m 483 546 b 686 394 600 546 686 496 b 472 243 686 290 604 243 l 472 0 b 947 396 713 0 947 126 b 788 679 947 519 890 613 l 942 1047 l 81 1047 l 81 0 l 353 0 l 353 824 l 599 824 z "},"Ŧ":{"ha":894,"x_min":0,"x_max":0,"o":"m 149 424 l 311 424 l 311 0 l 583 0 l 583 424 l 746 424 l 746 647 l 583 647 l 583 824 l 867 824 l 867 1047 l 28 1047 l 28 824 l 311 824 l 311 647 l 149 647 z "},"Ť":{"ha":894,"x_min":0,"x_max":0,"o":"m 475 1083 l 785 1369 l 667 1467 l 475 1343 l 283 1467 l 165 1369 z m 867 824 l 867 1047 l 28 1047 l 28 824 l 311 824 l 311 0 l 583 0 l 583 824 z "},"Ţ":{"ha":894,"x_min":0,"x_max":0,"o":"m 867 824 l 867 1047 l 28 1047 l 28 824 l 311 824 l 311 0 l 583 0 l 583 824 z m 311 -283 l 433 -365 l 643 -167 l 447 -35 z "},"Ț":{"ha":894,"x_min":0,"x_max":0,"o":"m 867 824 l 867 1047 l 28 1047 l 28 824 l 311 824 l 311 0 l 583 0 l 583 824 z m 311 -283 l 433 -365 l 643 -167 l 447 -35 z "},"Þ":{"ha":850,"x_min":0,"x_max":0,"o":"m 353 190 l 426 190 b 847 535 676 190 847 321 b 426 881 847 750 676 881 l 353 881 l 353 1047 l 81 1047 l 81 0 l 353 0 z m 353 660 l 425 660 b 569 535 515 660 569 611 b 425 411 569 460 515 411 l 353 411 z "},"Ú":{"ha":1014,"x_min":0,"x_max":0,"o":"m 351 1183 l 442 1079 l 824 1279 l 661 1471 z m 507 224 b 339 421 406 224 339 289 l 339 1047 l 67 1047 l 67 422 b 507 -17 67 143 257 -17 b 947 422 757 -17 947 143 l 947 1047 l 675 1047 l 675 421 b 507 224 675 289 608 224 z "},"Ŭ":{"ha":1014,"x_min":0,"x_max":0,"o":"m 507 1094 b 789 1367 657 1094 779 1215 l 606 1393 b 507 1285 596 1321 554 1285 b 408 1393 460 1285 418 1321 l 225 1367 b 507 1094 235 1215 357 1094 z m 507 224 b 339 421 406 224 339 289 l 339 1047 l 67 1047 l 67 422 b 507 -17 67 143 257 -17 b 947 422 757 -17 947 143 l 947 1047 l 675 1047 l 675 421 b 507 224 675 289 608 224 z "},"Û":{"ha":1014,"x_min":0,"x_max":0,"o":"m 507 1467 l 197 1181 l 315 1083 l 507 1207 l 699 1083 l 817 1181 z m 507 224 b 339 421 406 224 339 289 l 339 1047 l 67 1047 l 67 422 b 507 -17 67 143 257 -17 b 947 422 757 -17 947 143 l 947 1047 l 675 1047 l 675 421 b 507 224 675 289 608 224 z "},"Ü":{"ha":1014,"x_min":0,"x_max":0,"o":"m 333 1118 b 475 1261 410 1118 475 1181 b 333 1404 475 1342 410 1404 b 189 1261 254 1404 189 1342 b 333 1118 189 1181 254 1118 z m 681 1118 b 825 1261 760 1118 825 1181 b 681 1404 825 1342 760 1404 b 539 1261 604 1404 539 1342 b 681 1118 539 1181 604 1118 z m 507 224 b 339 421 406 224 339 289 l 339 1047 l 67 1047 l 67 422 b 507 -17 67 143 257 -17 b 947 422 757 -17 947 143 l 947 1047 l 675 1047 l 675 421 b 507 224 675 289 608 224 z "},"Ù":{"ha":1014,"x_min":0,"x_max":0,"o":"m 690 1183 l 381 1471 l 218 1279 l 600 1079 z m 507 224 b 339 421 406 224 339 289 l 339 1047 l 67 1047 l 67 422 b 507 -17 67 143 257 -17 b 947 422 757 -17 947 143 l 947 1047 l 675 1047 l 675 421 b 507 224 675 289 608 224 z "},"Ű":{"ha":1014,"x_min":0,"x_max":0,"o":"m 194 1181 l 301 1093 l 572 1286 l 397 1443 z m 547 1181 l 654 1093 l 925 1286 l 750 1443 z m 507 224 b 339 421 406 224 339 289 l 339 1047 l 67 1047 l 67 422 b 507 -17 67 143 257 -17 b 947 422 757 -17 947 143 l 947 1047 l 675 1047 l 675 421 b 507 224 675 289 608 224 z "},"Ū":{"ha":1014,"x_min":0,"x_max":0,"o":"m 257 1139 l 757 1139 l 757 1338 l 257 1338 z m 507 224 b 339 421 406 224 339 289 l 339 1047 l 67 1047 l 67 422 b 507 -17 67 143 257 -17 b 947 422 757 -17 947 143 l 947 1047 l 675 1047 l 675 421 b 507 224 675 289 608 224 z "},"Ų":{"ha":1014,"x_min":0,"x_max":0,"o":"m 547 -364 b 751 -268 635 -364 706 -326 l 667 -135 b 597 -179 644 -162 622 -179 b 557 -136 572 -179 557 -164 b 718 28 557 -97 586 -47 b 947 422 864 110 947 221 l 947 1047 l 675 1047 l 675 421 b 507 224 675 289 608 224 b 339 421 406 224 339 289 l 339 1047 l 67 1047 l 67 422 b 457 -14 67 163 232 6 b 363 -200 401 -65 363 -135 b 547 -364 363 -306 449 -364 z "},"Ů":{"ha":1014,"x_min":0,"x_max":0,"o":"m 715 1272 b 507 1474 715 1385 626 1474 b 299 1272 388 1474 299 1385 b 507 1071 299 1160 389 1071 b 715 1272 625 1071 715 1160 z m 435 1272 b 507 1344 435 1311 467 1344 b 579 1272 547 1344 579 1311 b 507 1200 579 1233 547 1200 b 435 1272 467 1200 435 1233 z m 507 224 b 339 421 406 224 339 289 l 339 1047 l 67 1047 l 67 422 b 507 -17 67 143 257 -17 b 947 422 757 -17 947 143 l 947 1047 l 675 1047 l 675 421 b 507 224 675 289 608 224 z "},"Ũ":{"ha":1014,"x_min":0,"x_max":0,"o":"m 597 1317 b 381 1375 531 1317 481 1375 b 222 1131 272 1375 222 1263 l 375 1131 b 417 1185 375 1163 392 1185 b 633 1125 489 1185 535 1125 b 792 1369 742 1125 792 1239 l 639 1369 b 597 1317 639 1338 622 1317 z m 507 224 b 339 421 406 224 339 289 l 339 1047 l 67 1047 l 67 422 b 507 -17 67 143 257 -17 b 947 422 757 -17 947 143 l 947 1047 l 675 1047 l 675 421 b 507 224 675 289 608 224 z "},"Ẃ":{"ha":1432,"x_min":0,"x_max":0,"o":"m 560 1183 l 650 1079 l 1032 1279 l 869 1471 z m 1446 1047 l 1163 1047 l 979 439 l 810 1047 l 625 1047 l 456 439 l 272 1047 l -14 1047 l 321 0 l 544 0 l 715 611 l 886 0 l 1111 0 z "},"Ŵ":{"ha":1432,"x_min":0,"x_max":0,"o":"m 715 1467 l 406 1181 l 524 1083 l 715 1207 l 907 1083 l 1025 1181 z m 1446 1047 l 1163 1047 l 979 439 l 810 1047 l 625 1047 l 456 439 l 272 1047 l -14 1047 l 321 0 l 544 0 l 715 611 l 886 0 l 1111 0 z "},"Ẁ":{"ha":1432,"x_min":0,"x_max":0,"o":"m 899 1183 l 589 1471 l 426 1279 l 808 1079 z m 1446 1047 l 1163 1047 l 979 439 l 810 1047 l 625 1047 l 456 439 l 272 1047 l -14 1047 l 321 0 l 544 0 l 715 611 l 886 0 l 1111 0 z "},"Ẅ":{"ha":1432,"x_min":0,"x_max":0,"o":"m 542 1118 b 683 1261 618 1118 683 1181 b 542 1404 683 1342 618 1404 b 397 1261 463 1404 397 1342 b 542 1118 397 1181 463 1118 z m 889 1118 b 1033 1261 968 1118 1033 1181 b 889 1404 1033 1342 968 1404 b 747 1261 813 1404 747 1342 b 889 1118 747 1181 813 1118 z m 1446 1047 l 1163 1047 l 979 439 l 810 1047 l 625 1047 l 456 439 l 272 1047 l -14 1047 l 321 0 l 544 0 l 715 611 l 886 0 l 1111 0 z "},"Ý":{"ha":1001,"x_min":0,"x_max":0,"o":"m 346 1183 l 436 1079 l 818 1279 l 656 1471 z m 636 0 l 636 446 l 1029 1047 l 722 1047 l 500 700 l 279 1047 l -28 1047 l 364 446 l 364 0 z "},"Ŷ":{"ha":1001,"x_min":0,"x_max":0,"o":"m 501 1467 l 192 1181 l 310 1083 l 501 1207 l 693 1083 l 811 1181 z m 636 0 l 636 446 l 1029 1047 l 722 1047 l 500 700 l 279 1047 l -28 1047 l 364 446 l 364 0 z "},"Ÿ":{"ha":1001,"x_min":0,"x_max":0,"o":"m 328 1118 b 469 1261 404 1118 469 1181 b 328 1404 469 1342 404 1404 b 183 1261 249 1404 183 1342 b 328 1118 183 1181 249 1118 z m 675 1118 b 819 1261 754 1118 819 1181 b 675 1404 819 1342 754 1404 b 533 1261 599 1404 533 1342 b 675 1118 533 1181 599 1118 z m 636 0 l 636 446 l 1029 1047 l 722 1047 l 500 700 l 279 1047 l -28 1047 l 364 446 l 364 0 z "},"Ỳ":{"ha":1001,"x_min":0,"x_max":0,"o":"m 685 1183 l 375 1471 l 213 1279 l 594 1079 z m 636 0 l 636 446 l 1029 1047 l 722 1047 l 500 700 l 279 1047 l -28 1047 l 364 446 l 364 0 z "},"Ź":{"ha":947,"x_min":0,"x_max":0,"o":"m 313 1183 l 403 1079 l 785 1279 l 622 1471 z m 493 824 l 11 0 l 904 0 l 904 224 l 442 224 l 924 1047 l 39 1047 l 39 824 z "},"Ž":{"ha":947,"x_min":0,"x_max":0,"o":"m 496 1083 l 806 1369 l 688 1467 l 496 1343 l 304 1467 l 186 1369 z m 493 824 l 11 0 l 904 0 l 904 224 l 442 224 l 924 1047 l 39 1047 l 39 824 z "},"Ż":{"ha":947,"x_min":0,"x_max":0,"o":"m 468 1117 b 618 1265 550 1117 618 1182 b 468 1414 618 1349 550 1414 b 318 1265 386 1414 318 1349 b 468 1117 318 1182 386 1117 z m 493 824 l 11 0 l 904 0 l 904 224 l 442 224 l 924 1047 l 39 1047 l 39 824 z "},"a":{"ha":907,"x_min":0,"x_max":0,"o":"m 585 719 l 585 650 b 375 736 546 692 475 736 b 22 360 183 736 22 576 b 375 -17 22 143 183 -17 b 585 69 475 -17 546 28 l 585 0 l 843 0 l 843 719 z m 279 360 b 435 518 279 449 344 518 b 590 360 525 518 590 449 b 435 201 590 271 525 201 b 279 360 344 201 279 271 z "},"b":{"ha":907,"x_min":0,"x_max":0,"o":"m 322 1119 l 64 1119 l 64 0 l 322 0 l 322 69 b 532 -17 361 28 432 -17 b 885 360 724 -17 885 143 b 532 736 885 576 724 736 b 322 650 432 736 361 692 z m 628 360 b 472 201 628 271 563 201 b 317 360 382 201 317 271 b 472 518 317 449 382 518 b 628 360 563 518 628 449 z "},"c":{"ha":578,"x_min":0,"x_max":0,"o":"m 408 736 b 21 360 203 736 21 582 b 408 -17 21 138 203 -17 b 540 1 460 -17 500 -11 l 540 240 b 425 207 507 221 479 207 b 267 360 343 207 267 264 b 425 513 267 456 343 513 b 540 479 479 513 507 499 l 540 718 b 408 736 500 731 460 736 z "},"d":{"ha":907,"x_min":0,"x_max":0,"o":"m 585 1119 l 585 650 b 375 736 546 692 475 736 b 22 360 183 736 22 576 b 375 -17 22 143 183 -17 b 585 69 475 -17 546 28 l 585 0 l 843 0 l 843 1119 z m 279 360 b 435 518 279 449 344 518 b 590 360 525 518 590 449 b 435 201 590 271 525 201 b 279 360 344 201 279 271 z "},"e":{"ha":804,"x_min":0,"x_max":0,"o":"m 410 185 b 267 285 344 185 289 219 l 779 285 b 408 736 811 535 663 736 b 22 360 201 736 22 576 b 408 -17 22 142 201 -17 b 771 231 579 -17 726 67 l 526 231 b 410 185 501 197 464 185 z m 408 532 b 535 438 483 532 528 481 l 268 438 b 408 532 292 499 346 532 z "},"f":{"ha":539,"x_min":0,"x_max":0,"o":"m 10 497 l 126 497 l 126 0 l 385 0 l 385 497 l 528 497 l 528 719 l 385 719 l 385 832 b 472 917 385 886 418 917 b 538 899 496 917 518 911 l 538 1115 b 415 1136 507 1129 467 1136 b 126 850 236 1136 126 1026 l 126 719 l 10 719 z "},"g":{"ha":907,"x_min":0,"x_max":0,"o":"m 843 17 l 843 719 l 585 719 l 585 650 b 375 736 546 692 475 736 b 22 360 183 736 22 576 b 375 -17 22 143 183 -17 b 585 69 475 -17 546 28 l 585 6 b 433 -158 585 -107 519 -158 b 290 -49 351 -158 297 -114 l 35 -49 b 431 -364 47 -243 217 -364 b 843 17 646 -364 843 -225 z m 279 360 b 435 518 279 449 344 518 b 590 360 525 518 590 449 b 435 201 590 271 525 201 b 279 360 344 201 279 271 z "},"h":{"ha":840,"x_min":0,"x_max":0,"o":"m 522 396 l 522 0 l 781 0 l 781 469 b 519 736 781 633 676 736 b 322 650 431 736 364 696 l 322 1119 l 64 1119 l 64 0 l 322 0 l 322 396 b 422 506 322 456 357 506 b 522 396 488 506 522 456 z "},"i":{"ha":386,"x_min":0,"x_max":0,"o":"m 193 836 b 343 985 275 836 343 901 b 193 1133 343 1068 275 1133 b 43 985 111 1133 43 1068 b 193 836 43 901 111 836 z m 64 719 l 64 0 l 322 0 l 322 719 z "},"j":{"ha":386,"x_min":0,"x_max":0,"o":"m 193 836 b 343 985 275 836 343 901 b 193 1133 343 1068 275 1133 b 43 985 111 1133 43 1068 b 193 836 43 901 111 836 z m 64 719 l 64 -347 l 322 -347 l 322 719 z "},"k":{"ha":836,"x_min":0,"x_max":0,"o":"m 561 0 l 857 0 l 579 382 l 856 719 l 557 719 l 322 421 l 322 1119 l 64 1119 l 64 0 l 322 0 l 322 329 z "},"l":{"ha":386,"x_min":0,"x_max":0,"o":"m 64 1119 l 64 0 l 322 0 l 322 1119 z "},"m":{"ha":1285,"x_min":0,"x_max":0,"o":"m 521 736 b 322 650 431 736 363 696 l 322 719 l 64 719 l 64 0 l 322 0 l 322 396 b 418 506 322 456 356 506 b 515 396 481 506 515 456 l 515 0 l 774 0 l 774 396 b 869 506 774 456 807 506 b 967 396 932 506 967 456 l 967 0 l 1225 0 l 1225 469 b 964 736 1225 633 1114 736 b 726 638 861 736 783 693 b 521 736 682 701 610 736 z "},"n":{"ha":840,"x_min":0,"x_max":0,"o":"m 522 396 l 522 0 l 781 0 l 781 469 b 519 736 781 633 676 736 b 322 650 431 736 364 696 l 322 719 l 64 719 l 64 0 l 322 0 l 322 396 b 422 506 322 456 357 506 b 522 396 488 506 522 456 z "},"o":{"ha":833,"x_min":0,"x_max":0,"o":"m 22 360 b 417 -17 22 139 206 -17 b 811 360 628 -17 811 139 b 417 736 811 581 628 736 b 22 360 206 736 22 581 z m 261 360 b 417 518 261 449 326 518 b 572 360 507 518 572 449 b 417 201 572 271 507 201 b 261 360 326 201 261 271 z "},"p":{"ha":907,"x_min":0,"x_max":0,"o":"m 322 719 l 64 719 l 64 -347 l 322 -347 l 322 69 b 532 -17 361 28 432 -17 b 885 360 724 -17 885 143 b 532 736 885 576 724 736 b 322 650 432 736 361 692 z m 628 360 b 472 201 628 271 563 201 b 317 360 382 201 317 271 b 472 518 317 449 382 518 b 628 360 563 518 628 449 z "},"q":{"ha":907,"x_min":0,"x_max":0,"o":"m 585 719 l 585 650 b 375 736 546 692 475 736 b 22 360 183 736 22 576 b 375 -17 22 143 183 -17 b 585 69 475 -17 546 28 l 585 -347 l 843 -347 l 843 719 z m 279 360 b 435 518 279 449 344 518 b 590 360 525 518 590 449 b 435 201 590 271 525 201 b 279 360 344 201 279 271 z "},"r":{"ha":564,"x_min":0,"x_max":0,"o":"m 553 728 b 518 731 542 729 529 731 b 322 625 432 731 358 682 l 322 719 l 64 719 l 64 0 l 322 0 l 322 324 b 493 469 322 424 394 469 b 553 464 513 469 532 468 z "},"s":{"ha":606,"x_min":0,"x_max":0,"o":"m 299 -17 b 593 228 442 -17 593 72 b 261 508 593 503 261 424 b 306 550 261 532 279 550 b 364 493 338 550 357 529 l 585 542 b 308 736 551 665 443 736 b 26 493 138 736 26 621 b 356 217 26 225 356 306 b 300 171 356 188 332 171 b 213 246 264 171 226 193 l -6 189 b 299 -17 24 54 167 -17 z "},"t":{"ha":540,"x_min":0,"x_max":0,"o":"m 11 497 l 128 497 l 128 0 l 386 0 l 386 497 l 529 497 l 529 719 l 386 719 l 386 942 l 128 942 l 128 719 l 11 719 z "},"u":{"ha":800,"x_min":0,"x_max":0,"o":"m 400 201 b 308 313 340 201 308 243 l 308 719 l 50 719 l 50 308 b 400 -17 50 117 194 -17 b 750 308 606 -17 750 117 l 750 719 l 492 719 l 492 313 b 400 201 492 243 460 201 z "},"v":{"ha":804,"x_min":0,"x_max":0,"o":"m 514 0 l 829 719 l 564 719 l 404 306 l 244 719 l -25 719 l 290 0 z "},"w":{"ha":1122,"x_min":0,"x_max":0,"o":"m 1147 719 l 878 719 l 753 367 l 622 719 l 485 719 l 353 367 l 228 719 l -25 719 l 260 0 l 425 0 l 561 363 l 697 0 l 863 0 z "},"x":{"ha":779,"x_min":0,"x_max":0,"o":"m -3 719 l 243 364 l -19 0 l 254 0 l 383 196 l 511 0 l 799 0 l 539 374 l 782 719 l 511 719 l 394 544 l 285 719 z "},"y":{"ha":817,"x_min":0,"x_max":0,"o":"m 0 -347 l 268 -347 l 842 719 l 567 719 l 411 408 l 254 719 l -25 719 l 274 150 z "},"z":{"ha":704,"x_min":0,"x_max":0,"o":"m 293 497 l 6 0 l 672 0 l 672 222 l 394 222 l 682 719 l 25 719 l 25 497 z "},"á":{"ha":907,"x_min":0,"x_max":0,"o":"m 286 883 l 388 779 l 697 983 l 518 1171 z m 585 719 l 585 650 b 375 736 546 692 475 736 b 22 360 183 736 22 576 b 375 -17 22 143 183 -17 b 585 69 475 -17 546 28 l 585 0 l 843 0 l 843 719 z m 279 360 b 435 518 279 449 344 518 b 590 360 525 518 590 449 b 435 201 590 271 525 201 b 279 360 344 201 279 271 z "},"ă":{"ha":907,"x_min":0,"x_max":0,"o":"m 464 810 b 746 1082 614 810 736 931 l 563 1108 b 464 1000 553 1036 511 1000 b 365 1108 417 1000 375 1036 l 182 1082 b 464 810 192 931 314 810 z m 585 719 l 585 650 b 375 736 546 692 475 736 b 22 360 183 736 22 576 b 375 -17 22 143 183 -17 b 585 69 475 -17 546 28 l 585 0 l 843 0 l 843 719 z m 279 360 b 435 518 279 449 344 518 b 590 360 525 518 590 449 b 435 201 590 271 525 201 b 279 360 344 201 279 271 z "},"â":{"ha":907,"x_min":0,"x_max":0,"o":"m 464 1167 l 182 881 l 300 783 l 464 907 l 628 783 l 746 881 z m 585 719 l 585 650 b 375 736 546 692 475 736 b 22 360 183 736 22 576 b 375 -17 22 143 183 -17 b 585 69 475 -17 546 28 l 585 0 l 843 0 l 843 719 z m 279 360 b 435 518 279 449 344 518 b 590 360 525 518 590 449 b 435 201 590 271 525 201 b 279 360 344 201 279 271 z "},"ä":{"ha":907,"x_min":0,"x_max":0,"o":"m 638 836 b 782 979 717 836 782 899 b 638 1122 782 1060 717 1122 b 496 979 561 1122 496 1060 b 638 836 496 899 561 836 z m 290 836 b 432 979 367 836 432 899 b 290 1122 432 1060 367 1122 b 146 979 211 1122 146 1060 b 290 836 146 899 211 836 z m 585 719 l 585 650 b 375 736 546 692 475 736 b 22 360 183 736 22 576 b 375 -17 22 143 183 -17 b 585 69 475 -17 546 28 l 585 0 l 843 0 l 843 719 z m 279 360 b 435 518 279 449 344 518 b 590 360 525 518 590 449 b 435 201 590 271 525 201 b 279 360 344 201 279 271 z "},"à":{"ha":907,"x_min":0,"x_max":0,"o":"m 642 883 l 410 1171 l 231 983 l 540 779 z m 585 719 l 585 650 b 375 736 546 692 475 736 b 22 360 183 736 22 576 b 375 -17 22 143 183 -17 b 585 69 475 -17 546 28 l 585 0 l 843 0 l 843 719 z m 279 360 b 435 518 279 449 344 518 b 590 360 525 518 590 449 b 435 201 590 271 525 201 b 279 360 344 201 279 271 z "},"ā":{"ha":907,"x_min":0,"x_max":0,"o":"m 228 861 l 700 861 l 700 1060 l 228 1060 z m 585 719 l 585 650 b 375 736 546 692 475 736 b 22 360 183 736 22 576 b 375 -17 22 143 183 -17 b 585 69 475 -17 546 28 l 585 0 l 843 0 l 843 719 z m 279 360 b 435 518 279 449 344 518 b 590 360 525 518 590 449 b 435 201 590 271 525 201 b 279 360 344 201 279 271 z "},"ą":{"ha":907,"x_min":0,"x_max":0,"o":"m 585 719 l 585 650 b 375 736 546 692 475 736 b 22 360 183 736 22 576 b 375 -17 22 143 183 -17 b 585 69 475 -17 546 28 l 585 0 l 588 0 b 475 -200 521 -58 475 -122 b 660 -364 475 -306 561 -364 b 864 -268 747 -364 818 -326 l 779 -135 b 710 -179 757 -162 735 -179 b 669 -139 685 -179 669 -162 b 788 0 669 -104 701 -65 l 843 0 l 843 719 z m 279 360 b 435 518 279 449 344 518 b 590 360 525 518 590 449 b 435 201 590 271 525 201 b 279 360 344 201 279 271 z "},"å":{"ha":907,"x_min":0,"x_max":0,"o":"m 661 988 b 464 1178 661 1094 576 1178 b 267 988 351 1178 267 1094 b 464 797 267 881 351 797 b 661 988 576 797 661 881 z m 399 988 b 464 1053 399 1024 426 1053 b 529 988 501 1053 529 1024 b 464 922 529 951 501 922 b 399 988 426 922 399 951 z m 585 719 l 585 650 b 375 736 546 692 475 736 b 22 360 183 736 22 576 b 375 -17 22 143 183 -17 b 585 69 475 -17 546 28 l 585 0 l 843 0 l 843 719 z m 279 360 b 435 518 279 449 344 518 b 590 360 525 518 590 449 b 435 201 590 271 525 201 b 279 360 344 201 279 271 z "},"ã":{"ha":907,"x_min":0,"x_max":0,"o":"m 365 1075 b 207 831 257 1075 207 963 l 360 831 b 401 885 360 863 376 885 b 563 825 454 885 489 825 b 721 1069 671 825 721 939 l 568 1069 b 526 1017 568 1038 551 1017 b 365 1075 476 1017 440 1075 z m 585 719 l 585 650 b 375 736 546 692 475 736 b 22 360 183 736 22 576 b 375 -17 22 143 183 -17 b 585 69 475 -17 546 28 l 585 0 l 843 0 l 843 719 z m 279 360 b 435 518 279 449 344 518 b 590 360 525 518 590 449 b 435 201 590 271 525 201 b 279 360 344 201 279 271 z "},"æ":{"ha":1193,"x_min":0,"x_max":0,"o":"m 99 689 l 99 488 b 311 544 164 524 244 544 b 438 497 376 544 417 526 b 418 431 428 475 422 453 b 299 450 382 443 340 450 b 14 221 144 450 14 367 b 297 -17 14 72 140 -17 b 543 75 382 -17 474 8 b 797 -17 613 17 701 -17 b 1160 231 968 -17 1115 67 l 915 231 b 799 185 890 197 853 185 b 656 285 733 185 678 219 l 1168 285 b 797 736 1200 535 1051 736 b 560 657 710 736 626 707 b 322 736 507 706 426 736 b 99 689 236 736 153 713 z m 797 532 b 924 438 872 532 917 481 l 657 438 b 797 532 681 499 735 532 z m 240 226 b 339 285 240 264 278 285 b 422 265 371 285 400 278 b 442 210 428 246 435 228 b 336 169 417 188 385 169 b 240 226 278 169 240 190 z "},"ǽ":{"ha":1193,"x_min":0,"x_max":0,"o":"m 428 883 l 529 779 l 839 983 l 660 1171 z m 99 689 l 99 488 b 311 544 164 524 244 544 b 438 497 376 544 417 526 b 418 431 428 475 422 453 b 299 450 382 443 340 450 b 14 221 144 450 14 367 b 297 -17 14 72 140 -17 b 543 75 382 -17 474 8 b 797 -17 613 17 701 -17 b 1160 231 968 -17 1115 67 l 915 231 b 799 185 890 197 853 185 b 656 285 733 185 678 219 l 1168 285 b 797 736 1200 535 1051 736 b 560 657 710 736 626 707 b 322 736 507 706 426 736 b 99 689 236 736 153 713 z m 797 532 b 924 438 872 532 917 481 l 657 438 b 797 532 681 499 735 532 z m 240 226 b 339 285 240 264 278 285 b 422 265 371 285 400 278 b 442 210 428 246 435 228 b 336 169 417 188 385 169 b 240 226 278 169 240 190 z "},"ć":{"ha":578,"x_min":0,"x_max":0,"o":"m 175 883 l 276 779 l 586 983 l 407 1171 z m 408 736 b 21 360 203 736 21 582 b 408 -17 21 138 203 -17 b 540 1 460 -17 500 -11 l 540 240 b 425 207 507 221 479 207 b 267 360 343 207 267 264 b 425 513 267 456 343 513 b 540 479 479 513 507 499 l 540 718 b 408 736 500 731 460 736 z "},"č":{"ha":578,"x_min":0,"x_max":0,"o":"m 353 783 l 635 1069 l 517 1167 l 353 1043 l 189 1167 l 71 1069 z m 408 736 b 21 360 203 736 21 582 b 408 -17 21 138 203 -17 b 540 1 460 -17 500 -11 l 540 240 b 425 207 507 221 479 207 b 267 360 343 207 267 264 b 425 513 267 456 343 513 b 540 479 479 513 507 499 l 540 718 b 408 736 500 731 460 736 z "},"ç":{"ha":578,"x_min":0,"x_max":0,"o":"m 408 736 b 21 360 203 736 21 582 b 408 -17 21 138 203 -17 b 540 1 460 -17 500 -11 l 540 240 b 425 207 507 221 479 207 b 267 360 343 207 267 264 b 425 513 267 456 343 513 b 540 479 479 513 507 499 l 540 718 b 408 736 500 731 460 736 z m 203 -283 l 325 -365 l 535 -167 l 339 -35 z "},"ĉ":{"ha":578,"x_min":0,"x_max":0,"o":"m 353 1167 l 71 881 l 189 783 l 353 907 l 517 783 l 635 881 z m 408 736 b 21 360 203 736 21 582 b 408 -17 21 138 203 -17 b 540 1 460 -17 500 -11 l 540 240 b 425 207 507 221 479 207 b 267 360 343 207 267 264 b 425 513 267 456 343 513 b 540 479 479 513 507 499 l 540 718 b 408 736 500 731 460 736 z "},"ċ":{"ha":578,"x_min":0,"x_max":0,"o":"m 353 836 b 503 985 435 836 503 901 b 353 1133 503 1068 435 1133 b 203 985 271 1133 203 1068 b 353 836 203 901 271 836 z m 408 736 b 21 360 203 736 21 582 b 408 -17 21 138 203 -17 b 540 1 460 -17 500 -11 l 540 240 b 425 207 507 221 479 207 b 267 360 343 207 267 264 b 425 513 267 456 343 513 b 540 479 479 513 507 499 l 540 718 b 408 736 500 731 460 736 z "},"ď":{"ha":907,"x_min":0,"x_max":0,"o":"m 879 783 l 1029 742 l 1181 1067 l 953 1136 z m 585 1119 l 585 650 b 375 736 546 692 475 736 b 22 360 183 736 22 576 b 375 -17 22 143 183 -17 b 585 69 475 -17 546 28 l 585 0 l 843 0 l 843 1119 z m 279 360 b 435 518 279 449 344 518 b 590 360 525 518 590 449 b 435 201 590 271 525 201 b 279 360 344 201 279 271 z "},"đ":{"ha":918,"x_min":0,"x_max":0,"o":"m 585 1033 l 401 1033 l 401 832 l 585 832 l 585 650 b 375 736 546 692 475 736 b 22 360 183 736 22 576 b 375 -17 22 143 183 -17 b 585 69 475 -17 546 28 l 585 0 l 843 0 l 843 832 l 924 832 l 924 1033 l 843 1033 l 843 1119 l 585 1119 z m 279 360 b 435 518 279 449 344 518 b 590 360 525 518 590 449 b 435 201 590 271 525 201 b 279 360 344 201 279 271 z "},"é":{"ha":804,"x_min":0,"x_max":0,"o":"m 228 883 l 329 779 l 639 983 l 460 1171 z m 410 185 b 267 285 344 185 289 219 l 779 285 b 408 736 811 535 663 736 b 22 360 201 736 22 576 b 408 -17 22 142 201 -17 b 771 231 579 -17 726 67 l 526 231 b 410 185 501 197 464 185 z m 408 532 b 535 438 483 532 528 481 l 268 438 b 408 532 292 499 346 532 z "},"ĕ":{"ha":804,"x_min":0,"x_max":0,"o":"m 406 810 b 688 1082 556 810 678 931 l 504 1108 b 406 1000 494 1036 453 1000 b 307 1108 358 1000 317 1036 l 124 1082 b 406 810 133 931 256 810 z m 410 185 b 267 285 344 185 289 219 l 779 285 b 408 736 811 535 663 736 b 22 360 201 736 22 576 b 408 -17 22 142 201 -17 b 771 231 579 -17 726 67 l 526 231 b 410 185 501 197 464 185 z m 408 532 b 535 438 483 532 528 481 l 268 438 b 408 532 292 499 346 532 z "},"ě":{"ha":804,"x_min":0,"x_max":0,"o":"m 406 783 l 688 1069 l 569 1167 l 406 1043 l 242 1167 l 124 1069 z m 410 185 b 267 285 344 185 289 219 l 779 285 b 408 736 811 535 663 736 b 22 360 201 736 22 576 b 408 -17 22 142 201 -17 b 771 231 579 -17 726 67 l 526 231 b 410 185 501 197 464 185 z m 408 532 b 535 438 483 532 528 481 l 268 438 b 408 532 292 499 346 532 z "},"ê":{"ha":804,"x_min":0,"x_max":0,"o":"m 406 1167 l 124 881 l 242 783 l 406 907 l 569 783 l 688 881 z m 410 185 b 267 285 344 185 289 219 l 779 285 b 408 736 811 535 663 736 b 22 360 201 736 22 576 b 408 -17 22 142 201 -17 b 771 231 579 -17 726 67 l 526 231 b 410 185 501 197 464 185 z m 408 532 b 535 438 483 532 528 481 l 268 438 b 408 532 292 499 346 532 z "},"ë":{"ha":804,"x_min":0,"x_max":0,"o":"m 579 836 b 724 979 658 836 724 899 b 579 1122 724 1060 658 1122 b 438 979 503 1122 438 1060 b 579 836 438 899 503 836 z m 232 836 b 374 979 308 836 374 899 b 232 1122 374 1060 308 1122 b 88 979 153 1122 88 1060 b 232 836 88 899 153 836 z m 410 185 b 267 285 344 185 289 219 l 779 285 b 408 736 811 535 663 736 b 22 360 201 736 22 576 b 408 -17 22 142 201 -17 b 771 231 579 -17 726 67 l 526 231 b 410 185 501 197 464 185 z m 408 532 b 535 438 483 532 528 481 l 268 438 b 408 532 292 499 346 532 z "},"ė":{"ha":804,"x_min":0,"x_max":0,"o":"m 406 836 b 556 985 488 836 556 901 b 406 1133 556 1068 488 1133 b 256 985 324 1133 256 1068 b 406 836 256 901 324 836 z m 410 185 b 267 285 344 185 289 219 l 779 285 b 408 736 811 535 663 736 b 22 360 201 736 22 576 b 408 -17 22 142 201 -17 b 771 231 579 -17 726 67 l 526 231 b 410 185 501 197 464 185 z m 408 532 b 535 438 483 532 528 481 l 268 438 b 408 532 292 499 346 532 z "},"è":{"ha":804,"x_min":0,"x_max":0,"o":"m 583 883 l 351 1171 l 172 983 l 482 779 z m 410 185 b 267 285 344 185 289 219 l 779 285 b 408 736 811 535 663 736 b 22 360 201 736 22 576 b 408 -17 22 142 201 -17 b 771 231 579 -17 726 67 l 526 231 b 410 185 501 197 464 185 z m 408 532 b 535 438 483 532 528 481 l 268 438 b 408 532 292 499 346 532 z "},"ē":{"ha":804,"x_min":0,"x_max":0,"o":"m 169 861 l 642 861 l 642 1060 l 169 1060 z m 410 185 b 267 285 344 185 289 219 l 779 285 b 408 736 811 535 663 736 b 22 360 201 736 22 576 b 408 -17 22 142 201 -17 b 771 231 579 -17 726 67 l 526 231 b 410 185 501 197 464 185 z m 408 532 b 535 438 483 532 528 481 l 268 438 b 408 532 292 499 346 532 z "},"ę":{"ha":804,"x_min":0,"x_max":0,"o":"m 697 -268 l 613 -135 b 544 -179 590 -162 569 -179 b 503 -132 519 -179 503 -162 b 631 39 503 -90 535 -33 b 771 231 715 103 750 151 l 526 231 b 410 185 501 197 464 185 b 267 285 344 185 289 219 l 779 285 b 408 736 811 535 663 736 b 22 360 201 736 22 576 b 392 -17 22 147 192 -8 b 308 -201 339 -75 308 -137 b 493 -364 308 -310 394 -364 b 697 -268 581 -364 651 -326 z m 408 532 b 535 438 483 532 528 481 l 268 438 b 408 532 292 499 346 532 z "},"ð":{"ha":833,"x_min":0,"x_max":0,"o":"m 110 878 l 110 689 l 376 801 b 454 719 407 775 433 747 b 415 722 442 721 428 722 b 22 360 204 722 22 581 b 417 -17 22 139 206 -17 b 811 400 628 -17 811 146 b 586 890 811 582 722 754 l 651 918 l 651 1107 l 436 1015 b 206 1136 364 1065 286 1106 l 61 997 b 210 919 111 975 161 949 z m 261 360 b 417 518 261 449 326 518 b 572 360 507 518 572 449 b 417 201 572 271 507 201 b 261 360 326 201 261 271 z "},"ğ":{"ha":907,"x_min":0,"x_max":0,"o":"m 464 810 b 746 1082 614 810 736 931 l 563 1108 b 464 1000 553 1036 511 1000 b 365 1108 417 1000 375 1036 l 182 1082 b 464 810 192 931 314 810 z m 843 17 l 843 719 l 585 719 l 585 650 b 375 736 546 692 475 736 b 22 360 183 736 22 576 b 375 -17 22 143 183 -17 b 585 69 475 -17 546 28 l 585 6 b 433 -158 585 -107 519 -158 b 290 -49 351 -158 297 -114 l 35 -49 b 431 -364 47 -243 217 -364 b 843 17 646 -364 843 -225 z m 279 360 b 435 518 279 449 344 518 b 590 360 525 518 590 449 b 435 201 590 271 525 201 b 279 360 344 201 279 271 z "},"ĝ":{"ha":907,"x_min":0,"x_max":0,"o":"m 464 1167 l 182 881 l 300 783 l 464 907 l 628 783 l 746 881 z m 843 17 l 843 719 l 585 719 l 585 650 b 375 736 546 692 475 736 b 22 360 183 736 22 576 b 375 -17 22 143 183 -17 b 585 69 475 -17 546 28 l 585 6 b 433 -158 585 -107 519 -158 b 290 -49 351 -158 297 -114 l 35 -49 b 431 -364 47 -243 217 -364 b 843 17 646 -364 843 -225 z m 279 360 b 435 518 279 449 344 518 b 590 360 525 518 590 449 b 435 201 590 271 525 201 b 279 360 344 201 279 271 z "},"ģ":{"ha":907,"x_min":0,"x_max":0,"o":"m 628 1042 l 506 1124 l 296 925 l 492 793 z m 843 17 l 843 719 l 585 719 l 585 650 b 375 736 546 692 475 736 b 22 360 183 736 22 576 b 375 -17 22 143 183 -17 b 585 69 475 -17 546 28 l 585 6 b 433 -158 585 -107 519 -158 b 290 -49 351 -158 297 -114 l 35 -49 b 431 -364 47 -243 217 -364 b 843 17 646 -364 843 -225 z m 279 360 b 435 518 279 449 344 518 b 590 360 525 518 590 449 b 435 201 590 271 525 201 b 279 360 344 201 279 271 z "},"ġ":{"ha":907,"x_min":0,"x_max":0,"o":"m 464 836 b 614 985 546 836 614 901 b 464 1133 614 1068 546 1133 b 314 985 382 1133 314 1068 b 464 836 314 901 382 836 z m 843 17 l 843 719 l 585 719 l 585 650 b 375 736 546 692 475 736 b 22 360 183 736 22 576 b 375 -17 22 143 183 -17 b 585 69 475 -17 546 28 l 585 6 b 433 -158 585 -107 519 -158 b 290 -49 351 -158 297 -114 l 35 -49 b 431 -364 47 -243 217 -364 b 843 17 646 -364 843 -225 z m 279 360 b 435 518 279 449 344 518 b 590 360 525 518 590 449 b 435 201 590 271 525 201 b 279 360 344 201 279 271 z "},"ß":{"ha":828,"x_min":0,"x_max":0,"o":"m 392 478 b 556 357 486 478 556 440 b 392 232 556 274 488 232 l 392 0 b 801 346 593 0 801 108 b 621 624 801 474 728 569 b 749 849 686 667 749 742 b 418 1136 749 1011 619 1136 b 64 799 211 1136 64 990 l 64 0 l 318 0 l 318 789 b 414 910 318 864 354 910 b 510 818 471 910 510 872 b 392 715 510 760 467 715 z "},"ħ":{"ha":840,"x_min":0,"x_max":0,"o":"m 522 396 l 522 0 l 781 0 l 781 469 b 519 736 781 633 676 736 b 322 650 431 736 364 696 l 322 832 l 517 832 l 517 1033 l 322 1033 l 322 1119 l 64 1119 l 64 1033 l -6 1033 l -6 832 l 64 832 l 64 0 l 322 0 l 322 396 b 422 506 322 456 357 506 b 522 396 488 506 522 456 z "},"ĥ":{"ha":840,"x_min":0,"x_max":0,"o":"m 422 1539 l 113 1253 l 231 1156 l 422 1279 l 614 1156 l 732 1253 z m 522 396 l 522 0 l 781 0 l 781 469 b 519 736 781 633 676 736 b 322 650 431 736 364 696 l 322 1119 l 64 1119 l 64 0 l 322 0 l 322 396 b 422 506 322 456 357 506 b 522 396 488 506 522 456 z "},"ı":{"ha":386,"x_min":0,"x_max":0,"o":"m 64 719 l 64 0 l 322 0 l 322 719 z "},"í":{"ha":386,"x_min":0,"x_max":0,"o":"m 15 883 l 117 779 l 426 983 l 247 1171 z m 64 719 l 64 0 l 322 0 l 322 719 z "},"ĭ":{"ha":386,"x_min":0,"x_max":0,"o":"m 193 810 b 475 1082 343 810 465 931 l 292 1108 b 193 1000 282 1036 240 1000 b 94 1108 146 1000 104 1036 l -89 1082 b 193 810 -79 931 43 810 z m 64 719 l 64 0 l 322 0 l 322 719 z "},"î":{"ha":386,"x_min":0,"x_max":0,"o":"m 193 1167 l -89 881 l 29 783 l 193 907 l 357 783 l 475 881 z m 64 719 l 64 0 l 322 0 l 322 719 z "},"ï":{"ha":386,"x_min":0,"x_max":0,"o":"m 367 836 b 511 979 446 836 511 899 b 367 1122 511 1060 446 1122 b 225 979 290 1122 225 1060 b 367 836 225 899 290 836 z m 19 836 b 161 979 96 836 161 899 b 19 1122 161 1060 96 1122 b -125 979 -60 1122 -125 1060 b 19 836 -125 899 -60 836 z m 64 719 l 64 0 l 322 0 l 322 719 z "},"ì":{"ha":386,"x_min":0,"x_max":0,"o":"m 371 883 l 139 1171 l -40 983 l 269 779 z m 64 719 l 64 0 l 322 0 l 322 719 z "},"ī":{"ha":386,"x_min":0,"x_max":0,"o":"m -43 861 l 429 861 l 429 1060 l -43 1060 z m 64 719 l 64 0 l 322 0 l 322 719 z "},"į":{"ha":386,"x_min":0,"x_max":0,"o":"m 193 836 b 343 985 275 836 343 901 b 193 1133 343 1068 275 1133 b 43 985 111 1133 43 1068 b 193 836 43 901 111 836 z m 64 719 l 64 0 l 96 0 b -17 -200 29 -58 -17 -122 b 168 -364 -17 -306 69 -364 b 372 -268 256 -364 326 -326 l 288 -135 b 218 -179 265 -162 243 -179 b 178 -139 193 -179 178 -162 b 296 0 178 -104 210 -65 l 322 0 l 322 719 z "},"ĩ":{"ha":386,"x_min":0,"x_max":0,"o":"m 94 1075 b -64 831 -14 1075 -64 963 l 89 831 b 131 885 89 863 106 885 b 292 825 183 885 218 825 b 450 1069 400 825 450 939 l 297 1069 b 256 1017 297 1038 281 1017 b 94 1075 206 1017 169 1075 z m 64 719 l 64 0 l 322 0 l 322 719 z "},"ĳ":{"ha":800,"x_min":0,"x_max":0,"o":"m 193 836 b 343 985 275 836 343 901 b 193 1133 343 1068 275 1133 b 43 985 111 1133 43 1068 b 193 836 43 901 111 836 z m 607 836 b 757 985 689 836 757 901 b 607 1133 757 1068 689 1133 b 457 985 525 1133 457 1068 b 607 836 457 901 525 836 z m 64 719 l 64 0 l 322 0 l 322 719 z m 478 719 l 478 -347 l 736 -347 l 736 719 z "},"ȷ":{"ha":386,"x_min":0,"x_max":0,"o":"m 64 719 l 64 -347 l 322 -347 l 322 719 z "},"ĵ":{"ha":386,"x_min":0,"x_max":0,"o":"m 193 1167 l -89 881 l 29 783 l 193 907 l 357 783 l 475 881 z m 64 719 l 64 -347 l 322 -347 l 322 719 z "},"ķ":{"ha":836,"x_min":0,"x_max":0,"o":"m 561 0 l 857 0 l 579 382 l 856 719 l 557 719 l 322 421 l 322 1119 l 64 1119 l 64 0 l 322 0 l 322 329 z m 311 -283 l 433 -365 l 643 -167 l 447 -35 z "},"ĸ":{"ha":836,"x_min":0,"x_max":0,"o":"m 561 0 l 857 0 l 579 382 l 856 719 l 557 719 l 322 421 l 322 719 l 64 719 l 64 0 l 322 0 l 322 329 z "},"ĺ":{"ha":386,"x_min":0,"x_max":0,"o":"m 38 1256 l 128 1151 l 510 1351 l 347 1543 z m 64 1119 l 64 0 l 322 0 l 322 1119 z "},"ľ":{"ha":386,"x_min":0,"x_max":0,"o":"m 358 783 l 508 742 l 660 1067 l 432 1136 z m 64 1119 l 64 0 l 322 0 l 322 1119 z "},"ļ":{"ha":386,"x_min":0,"x_max":0,"o":"m 64 1119 l 64 0 l 322 0 l 322 1119 z m 57 -283 l 179 -365 l 389 -167 l 193 -35 z "},"ŀ":{"ha":665,"x_min":0,"x_max":0,"o":"m 64 1119 l 64 0 l 322 0 l 322 1119 z m 528 413 b 678 561 610 413 678 478 b 528 710 678 644 610 710 b 378 561 446 710 378 644 b 528 413 378 478 446 413 z "},"ł":{"ha":442,"x_min":0,"x_max":0,"o":"m 0 329 l 92 376 l 92 0 l 350 0 l 350 479 l 442 526 l 442 735 l 350 688 l 350 1119 l 92 1119 l 92 585 l 0 538 z "},"ń":{"ha":840,"x_min":0,"x_max":0,"o":"m 244 883 l 346 779 l 656 983 l 476 1171 z m 522 396 l 522 0 l 781 0 l 781 469 b 519 736 781 633 676 736 b 322 650 431 736 364 696 l 322 719 l 64 719 l 64 0 l 322 0 l 322 396 b 422 506 322 456 357 506 b 522 396 488 506 522 456 z "},"ň":{"ha":840,"x_min":0,"x_max":0,"o":"m 422 783 l 704 1069 l 586 1167 l 422 1043 l 258 1167 l 140 1069 z m 522 396 l 522 0 l 781 0 l 781 469 b 519 736 781 633 676 736 b 322 650 431 736 364 696 l 322 719 l 64 719 l 64 0 l 322 0 l 322 396 b 422 506 322 456 357 506 b 522 396 488 506 522 456 z "},"ņ":{"ha":840,"x_min":0,"x_max":0,"o":"m 522 396 l 522 0 l 781 0 l 781 469 b 519 736 781 633 676 736 b 322 650 431 736 364 696 l 322 719 l 64 719 l 64 0 l 322 0 l 322 396 b 422 506 322 456 357 506 b 522 396 488 506 522 456 z m 286 -283 l 408 -365 l 618 -167 l 422 -35 z "},"ñ":{"ha":840,"x_min":0,"x_max":0,"o":"m 324 1075 b 165 831 215 1075 165 963 l 318 831 b 360 885 318 863 335 885 b 521 825 413 885 447 825 b 679 1069 629 825 679 939 l 526 1069 b 485 1017 526 1038 510 1017 b 324 1075 435 1017 399 1075 z m 522 396 l 522 0 l 781 0 l 781 469 b 519 736 781 633 676 736 b 322 650 431 736 364 696 l 322 719 l 64 719 l 64 0 l 322 0 l 322 396 b 422 506 322 456 357 506 b 522 396 488 506 522 456 z "},"ŋ":{"ha":840,"x_min":0,"x_max":0,"o":"m 522 396 l 522 -347 l 781 -347 l 781 469 b 519 736 781 633 676 736 b 322 650 431 736 364 696 l 322 719 l 64 719 l 64 0 l 322 0 l 322 396 b 422 506 322 456 357 506 b 522 396 488 506 522 456 z "},"ó":{"ha":833,"x_min":0,"x_max":0,"o":"m 239 883 l 340 779 l 650 983 l 471 1171 z m 22 360 b 417 -17 22 139 206 -17 b 811 360 628 -17 811 139 b 417 736 811 581 628 736 b 22 360 206 736 22 581 z m 261 360 b 417 518 261 449 326 518 b 572 360 507 518 572 449 b 417 201 572 271 507 201 b 261 360 326 201 261 271 z "},"ŏ":{"ha":833,"x_min":0,"x_max":0,"o":"m 417 810 b 699 1082 567 810 689 931 l 515 1108 b 417 1000 506 1036 464 1000 b 318 1108 369 1000 328 1036 l 135 1082 b 417 810 144 931 267 810 z m 22 360 b 417 -17 22 139 206 -17 b 811 360 628 -17 811 139 b 417 736 811 581 628 736 b 22 360 206 736 22 581 z m 261 360 b 417 518 261 449 326 518 b 572 360 507 518 572 449 b 417 201 572 271 507 201 b 261 360 326 201 261 271 z "},"ô":{"ha":833,"x_min":0,"x_max":0,"o":"m 417 1167 l 135 881 l 253 783 l 417 907 l 581 783 l 699 881 z m 22 360 b 417 -17 22 139 206 -17 b 811 360 628 -17 811 139 b 417 736 811 581 628 736 b 22 360 206 736 22 581 z m 261 360 b 417 518 261 449 326 518 b 572 360 507 518 572 449 b 417 201 572 271 507 201 b 261 360 326 201 261 271 z "},"ö":{"ha":833,"x_min":0,"x_max":0,"o":"m 590 836 b 735 979 669 836 735 899 b 590 1122 735 1060 669 1122 b 449 979 514 1122 449 1060 b 590 836 449 899 514 836 z m 243 836 b 385 979 319 836 385 899 b 243 1122 385 1060 319 1122 b 99 979 164 1122 99 1060 b 243 836 99 899 164 836 z m 22 360 b 417 -17 22 139 206 -17 b 811 360 628 -17 811 139 b 417 736 811 581 628 736 b 22 360 206 736 22 581 z m 261 360 b 417 518 261 449 326 518 b 572 360 507 518 572 449 b 417 201 572 271 507 201 b 261 360 326 201 261 271 z "},"ò":{"ha":833,"x_min":0,"x_max":0,"o":"m 594 883 l 363 1171 l 183 983 l 493 779 z m 22 360 b 417 -17 22 139 206 -17 b 811 360 628 -17 811 139 b 417 736 811 581 628 736 b 22 360 206 736 22 581 z m 261 360 b 417 518 261 449 326 518 b 572 360 507 518 572 449 b 417 201 572 271 507 201 b 261 360 326 201 261 271 z "},"ő":{"ha":833,"x_min":0,"x_max":0,"o":"m 161 875 l 289 801 l 499 1025 l 294 1156 z m 463 875 l 590 801 l 800 1025 l 596 1156 z m 22 360 b 417 -17 22 139 206 -17 b 811 360 628 -17 811 139 b 417 736 811 581 628 736 b 22 360 206 736 22 581 z m 261 360 b 417 518 261 449 326 518 b 572 360 507 518 572 449 b 417 201 572 271 507 201 b 261 360 326 201 261 271 z "},"ō":{"ha":833,"x_min":0,"x_max":0,"o":"m 181 861 l 653 861 l 653 1060 l 181 1060 z m 22 360 b 417 -17 22 139 206 -17 b 811 360 628 -17 811 139 b 417 736 811 581 628 736 b 22 360 206 736 22 581 z m 261 360 b 417 518 261 449 326 518 b 572 360 507 518 572 449 b 417 201 572 271 507 201 b 261 360 326 201 261 271 z "},"ø":{"ha":833,"x_min":0,"x_max":0,"o":"m 24 360 b 89 149 24 279 47 207 l 8 74 l 113 -31 l 193 49 b 417 -17 257 7 335 -17 b 810 360 629 -17 810 139 b 744 571 810 440 786 513 l 825 646 l 721 750 l 640 671 b 417 736 576 713 499 736 b 24 360 204 736 24 581 z m 254 360 b 417 528 254 456 324 528 b 474 518 438 528 456 525 l 264 301 b 254 360 257 319 254 339 z m 581 360 b 417 192 581 264 511 192 b 360 201 397 192 378 194 l 571 419 b 581 360 578 401 581 381 z "},"ǿ":{"ha":833,"x_min":0,"x_max":0,"o":"m 239 883 l 340 779 l 650 983 l 471 1171 z m 24 360 b 89 149 24 279 47 207 l 8 74 l 113 -31 l 193 49 b 417 -17 257 7 335 -17 b 810 360 629 -17 810 139 b 744 571 810 440 786 513 l 825 646 l 721 750 l 640 671 b 417 736 576 713 499 736 b 24 360 204 736 24 581 z m 254 360 b 417 528 254 456 324 528 b 474 518 438 528 456 525 l 264 301 b 254 360 257 319 254 339 z m 581 360 b 417 192 581 264 511 192 b 360 201 397 192 378 194 l 571 419 b 581 360 578 401 581 381 z "},"õ":{"ha":833,"x_min":0,"x_max":0,"o":"m 318 1075 b 160 831 210 1075 160 963 l 313 831 b 354 885 313 863 329 885 b 515 825 407 885 442 825 b 674 1069 624 825 674 939 l 521 1069 b 479 1017 521 1038 504 1017 b 318 1075 429 1017 393 1075 z m 22 360 b 417 -17 22 139 206 -17 b 811 360 628 -17 811 139 b 417 736 811 581 628 736 b 22 360 206 736 22 581 z m 261 360 b 417 518 261 449 326 518 b 572 360 507 518 572 449 b 417 201 572 271 507 201 b 261 360 326 201 261 271 z "},"œ":{"ha":1339,"x_min":0,"x_max":0,"o":"m 683 625 b 417 736 615 694 526 736 b 22 360 206 736 22 581 b 417 -17 22 139 206 -17 b 685 94 526 -17 615 25 b 944 -17 753 26 842 -17 b 1304 231 1114 -17 1260 67 l 1061 231 b 946 188 1038 197 1000 185 b 806 285 882 188 829 221 l 1313 285 b 944 736 1343 535 1196 736 b 683 625 843 736 750 696 z m 944 532 b 1069 438 1019 532 1063 481 l 808 438 b 944 532 833 499 886 532 z m 261 360 b 417 518 261 449 326 518 b 572 360 507 518 572 449 b 417 201 572 271 507 201 b 261 360 326 201 261 271 z "},"ŕ":{"ha":572,"x_min":0,"x_max":0,"o":"m 135 883 l 236 779 l 546 983 l 367 1171 z m 553 728 b 518 731 542 729 529 731 b 322 625 432 731 358 682 l 322 719 l 64 719 l 64 0 l 322 0 l 322 324 b 493 469 322 424 394 469 b 553 464 513 469 532 468 z "},"ř":{"ha":572,"x_min":0,"x_max":0,"o":"m 313 783 l 594 1069 l 476 1167 l 313 1043 l 149 1167 l 31 1069 z m 553 728 b 518 731 542 729 529 731 b 322 625 432 731 358 682 l 322 719 l 64 719 l 64 0 l 322 0 l 322 324 b 493 469 322 424 394 469 b 553 464 513 469 532 468 z "},"ŗ":{"ha":572,"x_min":0,"x_max":0,"o":"m 553 728 b 518 731 542 729 529 731 b 322 625 432 731 358 682 l 322 719 l 64 719 l 64 0 l 322 0 l 322 324 b 493 469 322 424 394 469 b 553 464 513 469 532 468 z m 43 -283 l 165 -365 l 375 -167 l 179 -35 z "},"ś":{"ha":606,"x_min":0,"x_max":0,"o":"m 140 883 l 242 779 l 551 983 l 372 1171 z m 299 -17 b 593 228 442 -17 593 72 b 261 508 593 503 261 424 b 306 550 261 532 279 550 b 364 493 338 550 357 529 l 585 542 b 308 736 551 665 443 736 b 26 493 138 736 26 621 b 356 217 26 225 356 306 b 300 171 356 188 332 171 b 213 246 264 171 226 193 l -6 189 b 299 -17 24 54 167 -17 z "},"š":{"ha":606,"x_min":0,"x_max":0,"o":"m 318 783 l 600 1069 l 482 1167 l 318 1043 l 154 1167 l 36 1069 z m 299 -17 b 593 228 442 -17 593 72 b 261 508 593 503 261 424 b 306 550 261 532 279 550 b 364 493 338 550 357 529 l 585 542 b 308 736 551 665 443 736 b 26 493 138 736 26 621 b 356 217 26 225 356 306 b 300 171 356 188 332 171 b 213 246 264 171 226 193 l -6 189 b 299 -17 24 54 167 -17 z "},"ş":{"ha":606,"x_min":0,"x_max":0,"o":"m 299 -17 b 593 228 442 -17 593 72 b 261 508 593 503 261 424 b 306 550 261 532 279 550 b 364 493 338 550 357 529 l 585 542 b 308 736 551 665 443 736 b 26 493 138 736 26 621 b 356 217 26 225 356 306 b 300 171 356 188 332 171 b 213 246 264 171 226 193 l -6 189 b 299 -17 24 54 167 -17 z m 178 -283 l 300 -365 l 510 -167 l 314 -35 z "},"ŝ":{"ha":606,"x_min":0,"x_max":0,"o":"m 318 1167 l 36 881 l 154 783 l 318 907 l 482 783 l 600 881 z m 299 -17 b 593 228 442 -17 593 72 b 261 508 593 503 261 424 b 306 550 261 532 279 550 b 364 493 338 550 357 529 l 585 542 b 308 736 551 665 443 736 b 26 493 138 736 26 621 b 356 217 26 225 356 306 b 300 171 356 188 332 171 b 213 246 264 171 226 193 l -6 189 b 299 -17 24 54 167 -17 z "},"ș":{"ha":606,"x_min":0,"x_max":0,"o":"m 299 -17 b 593 228 442 -17 593 72 b 261 508 593 503 261 424 b 306 550 261 532 279 550 b 364 493 338 550 357 529 l 585 542 b 308 736 551 665 443 736 b 26 493 138 736 26 621 b 356 217 26 225 356 306 b 300 171 356 188 332 171 b 213 246 264 171 226 193 l -6 189 b 299 -17 24 54 167 -17 z m 178 -283 l 300 -365 l 510 -167 l 314 -35 z "},"ŧ":{"ha":540,"x_min":0,"x_max":0,"o":"m 11 429 l 11 221 l 128 221 l 128 0 l 386 0 l 386 221 l 529 221 l 529 429 l 386 429 l 386 511 l 529 511 l 529 719 l 386 719 l 386 942 l 128 942 l 128 719 l 11 719 l 11 511 l 128 511 l 128 429 z "},"ť":{"ha":540,"x_min":0,"x_max":0,"o":"m 422 783 l 572 742 l 724 1067 l 496 1136 z m 11 497 l 128 497 l 128 0 l 386 0 l 386 497 l 529 497 l 529 719 l 386 719 l 386 942 l 128 942 l 128 719 l 11 719 z "},"ţ":{"ha":540,"x_min":0,"x_max":0,"o":"m 11 497 l 128 497 l 128 0 l 386 0 l 386 497 l 529 497 l 529 719 l 386 719 l 386 942 l 128 942 l 128 719 l 11 719 z m 135 -283 l 257 -365 l 467 -167 l 271 -35 z "},"ț":{"ha":540,"x_min":0,"x_max":0,"o":"m 11 497 l 128 497 l 128 0 l 386 0 l 386 497 l 529 497 l 529 719 l 386 719 l 386 942 l 128 942 l 128 719 l 11 719 z m 135 -283 l 257 -365 l 467 -167 l 271 -35 z "},"þ":{"ha":918,"x_min":0,"x_max":0,"o":"m 322 1119 l 64 1119 l 64 -347 l 322 -347 l 322 69 b 539 -17 361 28 435 -17 b 894 360 733 -17 894 143 b 539 736 894 576 733 736 b 322 650 435 736 361 692 z m 635 360 b 475 199 635 269 568 199 b 317 360 383 199 317 269 b 475 521 317 450 383 521 b 635 360 568 521 635 450 z "},"ú":{"ha":800,"x_min":0,"x_max":0,"o":"m 222 883 l 324 779 l 633 983 l 454 1171 z m 400 201 b 308 313 340 201 308 243 l 308 719 l 50 719 l 50 308 b 400 -17 50 117 194 -17 b 750 308 606 -17 750 117 l 750 719 l 492 719 l 492 313 b 400 201 492 243 460 201 z "},"ŭ":{"ha":800,"x_min":0,"x_max":0,"o":"m 400 810 b 682 1082 550 810 672 931 l 499 1108 b 400 1000 489 1036 447 1000 b 301 1108 353 1000 311 1036 l 118 1082 b 400 810 128 931 250 810 z m 400 201 b 308 313 340 201 308 243 l 308 719 l 50 719 l 50 308 b 400 -17 50 117 194 -17 b 750 308 606 -17 750 117 l 750 719 l 492 719 l 492 313 b 400 201 492 243 460 201 z "},"û":{"ha":800,"x_min":0,"x_max":0,"o":"m 400 1167 l 118 881 l 236 783 l 400 907 l 564 783 l 682 881 z m 400 201 b 308 313 340 201 308 243 l 308 719 l 50 719 l 50 308 b 400 -17 50 117 194 -17 b 750 308 606 -17 750 117 l 750 719 l 492 719 l 492 313 b 400 201 492 243 460 201 z "},"ü":{"ha":800,"x_min":0,"x_max":0,"o":"m 574 836 b 718 979 653 836 718 899 b 574 1122 718 1060 653 1122 b 432 979 497 1122 432 1060 b 574 836 432 899 497 836 z m 226 836 b 368 979 303 836 368 899 b 226 1122 368 1060 303 1122 b 82 979 147 1122 82 1060 b 226 836 82 899 147 836 z m 400 201 b 308 313 340 201 308 243 l 308 719 l 50 719 l 50 308 b 400 -17 50 117 194 -17 b 750 308 606 -17 750 117 l 750 719 l 492 719 l 492 313 b 400 201 492 243 460 201 z "},"ù":{"ha":800,"x_min":0,"x_max":0,"o":"m 578 883 l 346 1171 l 167 983 l 476 779 z m 400 201 b 308 313 340 201 308 243 l 308 719 l 50 719 l 50 308 b 400 -17 50 117 194 -17 b 750 308 606 -17 750 117 l 750 719 l 492 719 l 492 313 b 400 201 492 243 460 201 z "},"ű":{"ha":800,"x_min":0,"x_max":0,"o":"m 144 875 l 272 801 l 482 1025 l 278 1156 z m 446 875 l 574 801 l 783 1025 l 579 1156 z m 400 201 b 308 313 340 201 308 243 l 308 719 l 50 719 l 50 308 b 400 -17 50 117 194 -17 b 750 308 606 -17 750 117 l 750 719 l 492 719 l 492 313 b 400 201 492 243 460 201 z "},"ū":{"ha":800,"x_min":0,"x_max":0,"o":"m 164 861 l 636 861 l 636 1060 l 164 1060 z m 400 201 b 308 313 340 201 308 243 l 308 719 l 50 719 l 50 308 b 400 -17 50 117 194 -17 b 750 308 606 -17 750 117 l 750 719 l 492 719 l 492 313 b 400 201 492 243 460 201 z "},"ų":{"ha":800,"x_min":0,"x_max":0,"o":"m 440 -139 b 588 22 440 -97 489 -43 b 750 308 690 90 750 182 l 750 719 l 492 719 l 492 313 b 400 201 492 243 460 201 b 308 313 340 201 308 243 l 308 719 l 50 719 l 50 308 b 347 -14 50 133 171 7 b 246 -200 281 -75 246 -135 b 436 -364 246 -304 332 -364 b 635 -268 518 -364 589 -326 l 550 -135 b 482 -179 529 -162 507 -179 b 440 -139 457 -179 440 -162 z "},"ů":{"ha":800,"x_min":0,"x_max":0,"o":"m 597 988 b 400 1178 597 1094 513 1178 b 203 988 288 1178 203 1094 b 400 797 203 881 288 797 b 597 988 513 797 597 881 z m 335 988 b 400 1053 335 1024 363 1053 b 465 988 438 1053 465 1024 b 400 922 465 951 438 922 b 335 988 363 922 335 951 z m 400 201 b 308 313 340 201 308 243 l 308 719 l 50 719 l 50 308 b 400 -17 50 117 194 -17 b 750 308 606 -17 750 117 l 750 719 l 492 719 l 492 313 b 400 201 492 243 460 201 z "},"ũ":{"ha":800,"x_min":0,"x_max":0,"o":"m 301 1075 b 143 831 193 1075 143 963 l 296 831 b 338 885 296 863 313 885 b 499 825 390 885 425 825 b 657 1069 607 825 657 939 l 504 1069 b 463 1017 504 1038 488 1017 b 301 1075 413 1017 376 1075 z m 400 201 b 308 313 340 201 308 243 l 308 719 l 50 719 l 50 308 b 400 -17 50 117 194 -17 b 750 308 606 -17 750 117 l 750 719 l 492 719 l 492 313 b 400 201 492 243 460 201 z "},"ẃ":{"ha":1122,"x_min":0,"x_max":0,"o":"m 383 883 l 485 779 l 794 983 l 615 1171 z m 1147 719 l 878 719 l 753 367 l 622 719 l 485 719 l 353 367 l 228 719 l -25 719 l 260 0 l 425 0 l 561 363 l 697 0 l 863 0 z "},"ŵ":{"ha":1122,"x_min":0,"x_max":0,"o":"m 561 1167 l 279 881 l 397 783 l 561 907 l 725 783 l 843 881 z m 1147 719 l 878 719 l 753 367 l 622 719 l 485 719 l 353 367 l 228 719 l -25 719 l 260 0 l 425 0 l 561 363 l 697 0 l 863 0 z "},"ẁ":{"ha":1122,"x_min":0,"x_max":0,"o":"m 739 883 l 507 1171 l 328 983 l 638 779 z m 1147 719 l 878 719 l 753 367 l 622 719 l 485 719 l 353 367 l 228 719 l -25 719 l 260 0 l 425 0 l 561 363 l 697 0 l 863 0 z "},"ẅ":{"ha":1122,"x_min":0,"x_max":0,"o":"m 735 836 b 879 979 814 836 879 899 b 735 1122 879 1060 814 1122 b 593 979 658 1122 593 1060 b 735 836 593 899 658 836 z m 388 836 b 529 979 464 836 529 899 b 388 1122 529 1060 464 1122 b 243 979 308 1122 243 1060 b 388 836 243 899 308 836 z m 1147 719 l 878 719 l 753 367 l 622 719 l 485 719 l 353 367 l 228 719 l -25 719 l 260 0 l 425 0 l 561 363 l 697 0 l 863 0 z "},"ý":{"ha":817,"x_min":0,"x_max":0,"o":"m 231 883 l 332 779 l 642 983 l 463 1171 z m 0 -347 l 268 -347 l 842 719 l 567 719 l 411 408 l 254 719 l -25 719 l 274 150 z "},"ŷ":{"ha":817,"x_min":0,"x_max":0,"o":"m 408 1167 l 126 881 l 244 783 l 408 907 l 572 783 l 690 881 z m 0 -347 l 268 -347 l 842 719 l 567 719 l 411 408 l 254 719 l -25 719 l 274 150 z "},"ÿ":{"ha":817,"x_min":0,"x_max":0,"o":"m 582 836 b 726 979 661 836 726 899 b 582 1122 726 1060 661 1122 b 440 979 506 1122 440 1060 b 582 836 440 899 506 836 z m 235 836 b 376 979 311 836 376 899 b 235 1122 376 1060 311 1122 b 90 979 156 1122 90 1060 b 235 836 90 899 156 836 z m 0 -347 l 268 -347 l 842 719 l 567 719 l 411 408 l 254 719 l -25 719 l 274 150 z "},"ỳ":{"ha":817,"x_min":0,"x_max":0,"o":"m 586 883 l 354 1171 l 175 983 l 485 779 z m 0 -347 l 268 -347 l 842 719 l 567 719 l 411 408 l 254 719 l -25 719 l 274 150 z "},"ź":{"ha":704,"x_min":0,"x_max":0,"o":"m 167 883 l 268 779 l 578 983 l 399 1171 z m 293 497 l 6 0 l 672 0 l 672 222 l 394 222 l 682 719 l 25 719 l 25 497 z "},"ž":{"ha":704,"x_min":0,"x_max":0,"o":"m 344 783 l 626 1069 l 508 1167 l 344 1043 l 181 1167 l 63 1069 z m 293 497 l 6 0 l 672 0 l 672 222 l 394 222 l 682 719 l 25 719 l 25 497 z "},"ż":{"ha":704,"x_min":0,"x_max":0,"o":"m 344 836 b 494 985 426 836 494 901 b 344 1133 494 1068 426 1133 b 194 985 263 1133 194 1068 b 344 836 194 901 263 836 z m 293 497 l 6 0 l 672 0 l 672 222 l 394 222 l 682 719 l 25 719 l 25 497 z "},"º":{"ha":599,"x_min":0,"x_max":0,"o":"m 19 793 b 300 529 19 636 149 529 b 579 793 450 529 579 636 b 300 1058 579 951 450 1058 b 19 793 149 1058 19 951 z m 208 793 b 300 889 208 847 246 889 b 392 793 354 889 392 847 b 300 699 392 740 354 699 b 208 793 246 699 208 740 z m 47 292 l 551 292 l 551 464 l 47 464 z "},"ª":{"ha":663,"x_min":0,"x_max":0,"o":"m 418 1047 l 418 1006 b 271 1058 392 1029 344 1058 b 19 793 135 1058 19 947 b 271 529 19 640 135 529 b 418 582 344 529 392 558 l 418 540 l 617 540 l 617 1047 z m 219 793 b 321 896 219 850 261 896 b 422 793 379 896 422 850 b 321 692 422 738 379 692 b 219 793 261 692 219 738 z m 47 292 l 617 292 l 617 464 l 47 464 z "},"&":{"ha":1028,"x_min":0,"x_max":0,"o":"m 747 785 b 443 1064 747 957 601 1064 b 125 779 275 1064 125 951 b 206 581 125 692 164 625 l 222 564 b 24 276 121 507 24 429 b 363 -17 24 113 156 -17 b 656 103 472 -17 565 25 l 753 0 l 1071 0 l 818 268 l 1007 475 l 844 621 l 667 429 l 565 536 b 747 785 661 589 747 663 z m 408 703 b 367 781 383 732 367 753 b 439 850 367 825 403 850 b 515 774 483 850 515 817 b 436 672 515 740 489 701 z m 268 311 b 350 428 268 368 306 401 l 506 261 b 376 206 464 224 426 206 b 268 311 313 206 268 249 z "},"`":{"ha":806,"x_min":0,"x_max":0,"o":"m 610 883 l 378 1171 l 199 983 l 508 779 z "},"´":{"ha":806,"x_min":0,"x_max":0,"o":"m 199 883 l 300 779 l 610 983 l 431 1171 z "},"ˆ":{"ha":806,"x_min":0,"x_max":0,"o":"m 403 1167 l 121 881 l 239 783 l 403 907 l 567 783 l 685 881 z "},"˜":{"ha":806,"x_min":0,"x_max":0,"o":"m 304 1075 b 146 831 196 1075 146 963 l 299 831 b 340 885 299 863 315 885 b 501 825 393 885 428 825 b 660 1069 610 825 660 939 l 507 1069 b 465 1017 507 1038 490 1017 b 304 1075 415 1017 379 1075 z "},"¯":{"ha":806,"x_min":0,"x_max":0,"o":"m 167 861 l 639 861 l 639 1060 l 167 1060 z "},"˘":{"ha":806,"x_min":0,"x_max":0,"o":"m 403 810 b 685 1082 553 810 675 931 l 501 1108 b 403 1000 492 1036 450 1000 b 304 1108 356 1000 314 1036 l 121 1082 b 403 810 131 931 253 810 z "},"˙":{"ha":806,"x_min":0,"x_max":0,"o":"m 403 836 b 553 985 485 836 553 901 b 403 1133 553 1068 485 1133 b 253 985 321 1133 253 1068 b 403 836 253 901 321 836 z "},"¨":{"ha":806,"x_min":0,"x_max":0,"o":"m 576 836 b 721 979 656 836 721 899 b 576 1122 721 1060 656 1122 b 435 979 500 1122 435 1060 b 576 836 435 899 500 836 z m 229 836 b 371 979 306 836 371 899 b 229 1122 371 1060 306 1122 b 85 979 150 1122 85 1060 b 229 836 85 899 150 836 z "},"˚":{"ha":806,"x_min":0,"x_max":0,"o":"m 600 988 b 403 1178 600 1094 515 1178 b 206 988 290 1178 206 1094 b 403 797 206 881 290 797 b 600 988 515 797 600 881 z m 338 988 b 403 1053 338 1024 365 1053 b 468 988 440 1053 468 1024 b 403 922 468 951 440 922 b 338 988 365 922 338 951 z "},"˝":{"ha":806,"x_min":0,"x_max":0,"o":"m 83 875 l 211 801 l 421 1025 l 217 1156 z m 385 875 l 513 801 l 722 1025 l 518 1156 z "},"ˇ":{"ha":806,"x_min":0,"x_max":0,"o":"m 403 783 l 685 1069 l 567 1167 l 403 1043 l 239 1167 l 121 1069 z "},"":{"ha":806,"x_min":0,"x_max":0,"o":"m 257 -283 l 379 -365 l 589 -167 l 393 -35 z "},"¸":{"ha":806,"x_min":0,"x_max":0,"o":"m 257 -283 l 379 -365 l 589 -167 l 393 -35 z "},"˛":{"ha":806,"x_min":0,"x_max":0,"o":"m 414 17 b 282 -200 338 -46 282 -115 b 467 -364 282 -306 368 -364 b 671 -268 554 -364 625 -326 l 586 -135 b 517 -179 564 -162 542 -179 b 476 -139 492 -179 476 -162 b 594 0 476 -104 508 -65 z "},".":{"ha":408,"x_min":0,"x_max":0,"o":"m 42 149 b 204 -12 42 57 114 -12 b 367 149 294 -12 367 57 b 204 310 367 240 294 310 b 42 149 114 310 42 240 z "},",":{"ha":408,"x_min":0,"x_max":0,"o":"m 119 306 l 21 -158 l 183 -207 l 401 215 z "},":":{"ha":408,"x_min":0,"x_max":0,"o":"m 42 557 b 204 396 42 465 114 396 b 367 557 294 396 367 465 b 204 718 367 649 294 718 b 42 557 114 718 42 649 z m 42 149 b 204 -12 42 57 114 -12 b 367 149 294 -12 367 57 b 204 310 367 240 294 310 b 42 149 114 310 42 240 z "},";":{"ha":408,"x_min":0,"x_max":0,"o":"m 42 557 b 204 396 42 465 114 396 b 367 557 294 396 367 465 b 204 718 367 649 294 718 b 42 557 114 718 42 649 z m 119 306 l 21 -158 l 183 -207 l 401 215 z "},"…":{"ha":1189,"x_min":0,"x_max":0,"o":"m 822 149 b 985 -12 822 57 894 -12 b 1147 149 1075 -12 1147 57 b 985 310 1147 240 1075 310 b 822 149 894 310 822 240 z m 432 149 b 594 -12 432 57 504 -12 b 757 149 685 -12 757 57 b 594 310 757 240 685 310 b 432 149 504 310 432 240 z m 42 149 b 204 -12 42 57 114 -12 b 367 149 294 -12 367 57 b 204 310 367 240 294 310 b 42 149 114 310 42 240 z "},"!":{"ha":408,"x_min":0,"x_max":0,"o":"m 68 361 l 340 361 l 340 1047 l 68 1047 z m 42 149 b 204 -12 42 57 114 -12 b 367 149 294 -12 367 57 b 204 310 367 240 294 310 b 42 149 114 310 42 240 z "},"¡":{"ha":408,"x_min":0,"x_max":0,"o":"m 367 575 b 204 736 367 667 294 736 b 42 575 114 736 42 667 b 204 414 42 483 114 414 b 367 575 294 414 367 483 z m 340 363 l 68 363 l 68 -324 l 340 -324 z "},"?":{"ha":656,"x_min":0,"x_max":0,"o":"m 290 542 b 649 817 290 639 649 568 b 340 1064 649 969 508 1064 b 7 788 160 1064 17 947 l 263 788 b 336 863 265 838 299 863 b 393 817 374 863 393 843 b 46 543 393 718 46 789 b 325 313 46 390 179 313 b 613 557 497 313 604 431 l 378 557 b 332 503 378 522 363 503 b 290 542 306 503 290 519 z m 172 136 b 324 -12 172 51 240 -12 b 474 136 407 -12 474 51 b 324 286 474 221 407 286 b 172 136 240 286 172 221 z "},"¿":{"ha":656,"x_min":0,"x_max":0,"o":"m 483 583 b 332 732 483 668 415 732 b 182 583 249 732 182 668 b 332 433 182 499 249 433 b 483 583 415 433 483 499 z m 365 178 b 7 -97 365 81 7 151 b 315 -344 7 -250 147 -344 b 649 -68 496 -344 639 -228 l 393 -68 b 319 -143 390 -118 357 -143 b 263 -97 282 -143 263 -124 b 610 176 263 1 610 -69 b 331 407 610 329 476 407 b 43 163 158 407 51 289 l 278 163 b 324 217 278 197 293 217 b 365 178 350 217 365 200 z "},"‘":{"ha":408,"x_min":0,"x_max":0,"o":"m 289 551 l 388 1015 l 225 1064 l 7 642 z "},"’":{"ha":408,"x_min":0,"x_max":0,"o":"m 119 1064 l 21 600 l 183 551 l 401 974 z "},"“":{"ha":771,"x_min":0,"x_max":0,"o":"m 651 551 l 750 1015 l 588 1064 l 369 642 z m 289 551 l 388 1015 l 225 1064 l 7 642 z "},"”":{"ha":771,"x_min":0,"x_max":0,"o":"m 119 1064 l 21 600 l 183 551 l 401 974 z m 482 1064 l 383 600 l 546 551 l 764 974 z "},"‚":{"ha":408,"x_min":0,"x_max":0,"o":"m 119 322 l 21 -142 l 183 -190 l 401 232 z "},"„":{"ha":771,"x_min":0,"x_max":0,"o":"m 119 322 l 21 -142 l 183 -190 l 401 232 z m 482 322 l 383 -142 l 546 -190 l 764 232 z "},"‹":{"ha":436,"x_min":0,"x_max":0,"o":"m 7 392 l 253 61 l 429 183 l 282 392 l 429 599 l 253 722 z "},"›":{"ha":436,"x_min":0,"x_max":0,"o":"m 429 392 l 183 722 l 7 599 l 154 392 l 7 183 l 183 61 z "},"«":{"ha":810,"x_min":0,"x_max":0,"o":"m 7 392 l 253 61 l 429 183 l 282 392 l 429 599 l 253 722 z m 381 392 l 626 61 l 803 183 l 656 392 l 803 599 l 626 722 z "},"»":{"ha":810,"x_min":0,"x_max":0,"o":"m 803 392 l 557 722 l 381 599 l 528 392 l 381 183 l 557 61 z m 429 392 l 183 722 l 7 599 l 154 392 l 7 183 l 183 61 z "},"/":{"ha":808,"x_min":0,"x_max":0,"o":"m 550 1119 l 0 -208 l 258 -208 l 808 1119 z "},"\\":{"ha":808,"x_min":0,"x_max":0,"o":"m 258 1119 l 0 1119 l 550 -208 l 808 -208 z "},"|":{"ha":408,"x_min":0,"x_max":0,"o":"m 83 1119 l 83 -208 l 325 -208 l 325 1119 z "},"·":{"ha":408,"x_min":0,"x_max":0,"o":"m 42 392 b 204 231 42 300 114 231 b 367 392 294 231 367 300 b 204 553 367 483 294 553 b 42 392 114 553 42 483 z "},"•":{"ha":711,"x_min":0,"x_max":0,"o":"m 356 706 b 42 392 185 706 42 565 b 356 78 42 218 185 78 b 669 392 529 78 669 218 b 356 706 669 565 529 706 z "},"-":{"ha":461,"x_min":0,"x_max":0,"o":"m 42 517 l 42 267 l 419 267 l 419 517 z "},"–":{"ha":656,"x_min":0,"x_max":0,"o":"m 42 510 l 42 274 l 614 274 l 614 510 z "},"—":{"ha":1017,"x_min":0,"x_max":0,"o":"m 42 510 l 42 274 l 975 274 l 975 510 z "},"(":{"ha":572,"x_min":0,"x_max":0,"o":"m 69 456 b 340 -250 69 189 172 -26 l 551 -146 b 315 456 368 108 315 249 b 551 1057 315 663 368 803 l 340 1161 b 69 456 172 938 69 708 z "},")":{"ha":572,"x_min":0,"x_max":0,"o":"m 503 456 b 232 1161 503 708 400 938 l 21 1057 b 257 456 204 803 257 663 b 21 -146 257 249 204 108 l 232 -250 b 503 456 400 -26 503 189 z "},"[":{"ha":585,"x_min":0,"x_max":0,"o":"m 322 924 l 564 924 l 564 1119 l 83 1119 l 83 -208 l 564 -208 l 564 -12 l 322 -12 z "},"]":{"ha":585,"x_min":0,"x_max":0,"o":"m 263 924 l 263 -12 l 21 -12 l 21 -208 l 501 -208 l 501 1119 l 21 1119 l 21 924 z "},"{":{"ha":639,"x_min":0,"x_max":0,"o":"m 28 347 l 79 347 b 182 233 142 347 182 317 l 182 1 b 385 -208 182 -140 263 -208 l 618 -208 l 618 -12 l 463 -12 b 415 44 431 -12 415 1 l 415 260 b 249 456 415 385 346 453 b 415 651 346 458 415 526 l 415 867 b 463 924 415 910 431 924 l 618 924 l 618 1119 l 385 1119 b 182 910 263 1119 182 1051 l 182 678 b 79 564 182 594 142 564 l 28 564 z "},"}":{"ha":639,"x_min":0,"x_max":0,"o":"m 611 347 l 611 564 l 560 564 b 457 678 497 564 457 594 l 457 910 b 254 1119 457 1051 376 1119 l 21 1119 l 21 924 l 176 924 b 224 867 208 924 224 910 l 224 651 b 390 456 224 526 293 458 b 224 260 293 453 224 385 l 224 44 b 176 -12 224 1 208 -12 l 21 -12 l 21 -208 l 254 -208 b 457 1 376 -208 457 -140 l 457 233 b 560 347 457 317 497 347 z "},"*":{"ha":743,"x_min":0,"x_max":0,"o":"m 300 371 l 446 371 l 446 582 l 635 475 l 708 600 l 518 710 l 708 818 l 635 944 l 446 836 l 446 1047 l 300 1047 l 300 836 l 111 944 l 35 818 l 228 710 l 35 600 l 111 475 l 300 582 z "},"†":{"ha":614,"x_min":0,"x_max":0,"o":"m 215 367 l 399 367 l 399 683 l 579 683 l 579 867 l 399 867 l 399 1047 l 215 1047 l 215 867 l 35 867 l 35 683 l 215 683 z "},"‡":{"ha":614,"x_min":0,"x_max":0,"o":"m 215 367 l 399 367 l 399 478 l 579 478 l 579 647 l 399 647 l 399 767 l 579 767 l 579 936 l 399 936 l 399 1047 l 215 1047 l 215 936 l 35 936 l 35 767 l 215 767 l 215 647 l 35 647 l 35 478 l 215 478 z "},"§":{"ha":661,"x_min":0,"x_max":0,"o":"m 28 343 b 122 133 28 253 67 189 b 268 24 167 89 221 54 b 389 -94 335 -19 389 -53 b 324 -160 389 -133 365 -160 b 249 -90 286 -160 264 -131 l 50 -197 b 325 -378 88 -294 194 -378 b 615 -112 486 -378 615 -267 b 490 115 615 -14 563 63 b 633 343 579 163 633 251 b 539 553 633 433 594 497 b 393 663 494 597 440 632 b 272 781 326 706 272 739 b 338 846 272 819 296 846 b 413 776 375 846 397 817 l 611 883 b 336 1064 574 981 467 1064 b 46 799 175 1064 46 953 b 171 571 46 700 99 624 b 28 343 82 524 28 435 z m 331 257 b 269 282 307 257 285 267 b 244 343 254 297 244 318 b 331 429 244 393 283 429 b 392 404 354 429 376 419 b 417 343 407 389 417 368 b 331 257 417 293 378 257 z "},"¶":{"ha":833,"x_min":0,"x_max":0,"o":"m 546 -347 l 715 -347 l 715 867 l 826 867 l 826 1047 l 546 1047 z m 299 -347 l 468 -347 l 468 1047 l 299 1047 b -7 778 161 1047 -7 968 b 299 504 -7 586 161 504 z "},"^":{"ha":781,"x_min":0,"x_max":0,"o":"m 292 1047 l 14 597 l 256 597 l 390 822 l 525 597 l 767 597 l 490 1047 z "},"~":{"ha":703,"x_min":0,"x_max":0,"o":"m 428 485 b 231 563 379 485 331 563 b 42 297 107 563 42 435 l 229 297 b 275 364 229 340 249 364 b 472 286 325 364 374 286 b 661 550 596 286 661 414 l 474 550 b 428 485 474 507 456 485 z "},"_":{"ha":750,"x_min":0,"x_max":0,"o":"m 56 -68 l 56 -290 l 694 -290 l 694 -68 z "},"'":{"ha":356,"x_min":0,"x_max":0,"o":"m 76 579 l 279 579 l 328 1047 l 28 1047 z "},"\"":{"ha":717,"x_min":0,"x_max":0,"o":"m 76 579 l 279 579 l 328 1047 l 28 1047 z m 438 579 l 640 579 l 689 1047 l 389 1047 z "},"@":{"ha":1414,"x_min":0,"x_max":0,"o":"m 636 21 b 854 125 738 21 819 69 b 1067 36 896 79 961 36 b 1386 432 1274 36 1386 200 b 725 1046 1386 778 1099 1046 b 28 356 325 1046 28 738 b 747 -326 28 -67 386 -326 b 1175 -197 926 -326 1075 -264 l 1089 -29 b 744 -140 1006 -86 885 -140 b 221 358 517 -140 221 24 b 726 860 221 664 443 860 b 1193 418 988 860 1193 694 b 1111 233 1193 326 1168 233 b 1054 317 1082 233 1054 247 l 1054 672 l 828 672 l 828 610 b 636 686 793 646 726 686 b 322 356 463 686 322 547 b 636 21 322 167 463 21 z m 821 353 b 692 221 821 279 767 221 b 560 353 615 221 560 279 b 692 486 560 428 615 486 b 821 353 767 486 821 428 z "},"©":{"ha":1125,"x_min":0,"x_max":0,"o":"m 28 524 b 563 -17 28 225 267 -17 b 1097 524 858 -17 1097 225 b 563 1064 1097 822 858 1064 b 28 524 267 1064 28 822 z m 1004 524 b 563 72 1004 276 807 72 b 121 524 317 72 121 276 b 563 975 121 772 318 975 b 1004 524 807 975 1004 772 z m 586 847 b 253 522 396 847 253 706 b 586 197 253 339 396 197 b 747 235 640 197 697 210 l 747 443 b 603 388 713 411 663 388 b 457 522 517 388 457 439 b 603 657 457 606 517 657 b 747 601 663 657 713 633 l 747 810 b 586 847 697 835 640 847 z "},"®":{"ha":746,"x_min":0,"x_max":0,"o":"m 374 1064 b 42 732 192 1064 42 914 b 374 401 42 550 192 401 b 704 732 556 401 704 550 b 374 1064 704 914 556 1064 z m 374 469 b 110 732 229 469 110 588 b 374 996 110 876 229 996 b 636 732 518 996 636 876 b 374 469 636 588 518 469 z m 344 672 l 347 672 l 401 572 l 524 572 l 444 694 b 507 792 475 710 507 740 b 376 903 507 854 460 903 l 243 903 l 243 572 l 344 572 z m 344 810 l 361 810 b 401 779 386 810 401 801 b 361 749 401 760 386 749 l 344 749 z "},"™":{"ha":1032,"x_min":0,"x_max":0,"o":"m 14 913 l 126 913 l 126 568 l 279 568 l 279 913 l 390 913 l 390 1047 l 14 1047 z m 750 568 l 838 793 l 883 568 l 1032 568 l 931 1047 l 801 1047 l 708 792 l 614 1047 l 486 1047 l 385 568 l 533 568 l 579 793 l 667 568 z "},"#":{"ha":1054,"x_min":0,"x_max":0,"o":"m 619 0 l 706 244 l 878 244 l 939 422 l 768 422 l 844 639 l 979 639 l 1040 817 l 907 817 l 988 1047 l 781 1047 l 700 817 l 557 817 l 638 1047 l 431 1047 l 350 817 l 176 817 l 115 639 l 288 639 l 211 422 l 75 422 l 14 244 l 149 244 l 63 0 l 269 0 l 356 244 l 499 244 l 413 0 z m 418 422 l 494 639 l 638 639 l 561 422 z "},"°":{"ha":567,"x_min":0,"x_max":0,"o":"m 21 801 b 283 539 21 653 135 539 b 546 801 432 539 546 653 b 283 1064 546 950 432 1064 b 21 801 135 1064 21 950 z m 375 801 b 283 710 375 750 336 710 b 192 801 231 710 192 750 b 283 893 192 853 232 893 b 375 801 336 893 375 853 z "},"ƒ":{"ha":874,"x_min":0,"x_max":0,"o":"m 153 372 l 285 372 l 226 160 b 106 60 208 94 167 60 b -7 97 61 60 21 78 l -7 -125 b 147 -161 31 -143 79 -161 b 479 135 322 -161 431 -42 l 544 372 l 739 372 l 739 588 l 604 588 l 647 743 b 765 843 665 808 706 843 b 881 806 810 843 851 825 l 881 1028 b 731 1064 842 1050 790 1064 b 394 768 551 1064 443 944 l 344 588 l 153 588 z "},"€":{"ha":901,"x_min":0,"x_max":0,"o":"m 21 318 l 151 318 b 649 -17 229 122 418 -17 b 871 32 729 -17 808 0 l 871 301 b 653 215 821 253 744 215 b 436 318 561 215 485 254 l 604 318 l 660 493 l 372 493 b 371 524 371 503 371 513 b 372 549 371 532 371 540 l 676 549 l 733 724 l 431 724 b 651 833 479 792 557 833 b 871 747 742 833 819 796 l 871 1017 b 651 1065 806 1050 729 1065 b 149 724 415 1065 226 924 l 21 724 l 21 549 l 113 549 l 113 524 b 114 493 113 514 113 503 l 21 493 z "},"$":{"ha":878,"x_min":0,"x_max":0,"o":"m 857 322 b 544 615 857 525 694 581 l 544 847 b 690 743 604 829 656 794 l 831 914 b 544 1060 753 996 657 1046 l 544 1188 l 367 1188 l 367 1056 b 75 733 192 1021 75 897 b 367 446 75 539 224 482 l 367 208 b 154 353 283 231 215 281 l -6 178 b 367 -12 83 76 219 6 l 367 -156 l 544 -156 l 544 -7 b 857 322 724 28 857 149 z m 290 750 b 367 849 290 796 319 831 l 367 663 b 290 750 321 682 290 707 z m 631 308 b 544 206 631 260 601 224 l 544 400 b 631 308 596 381 631 354 z "},"¢":{"ha":676,"x_min":0,"x_max":0,"o":"m 333 -156 l 511 -156 l 511 -14 b 625 8 553 -10 593 0 l 625 238 b 511 199 593 219 556 204 l 511 521 b 625 482 556 515 593 500 l 625 711 b 511 733 593 719 553 729 l 511 849 l 333 849 l 333 719 b 38 360 164 674 38 539 b 333 0 38 181 164 46 z m 251 360 b 333 497 251 422 282 469 l 333 222 b 251 360 282 250 251 297 z "},"£":{"ha":833,"x_min":0,"x_max":0,"o":"m 275 74 b 599 -14 375 74 463 -14 b 854 156 713 -14 814 69 l 693 303 b 567 215 663 244 619 215 b 472 236 535 215 504 225 b 446 383 465 294 456 343 l 621 383 l 621 576 l 369 576 b 324 725 344 626 324 664 b 446 847 324 789 367 847 b 596 701 524 847 569 796 l 821 797 b 444 1065 758 965 635 1065 b 63 724 221 1065 63 911 b 99 576 63 663 78 618 l 32 576 l 32 383 l 203 383 b 225 301 211 360 218 332 b -12 133 118 293 25 214 l 149 -14 b 275 74 181 44 224 74 z "},"¥":{"ha":971,"x_min":0,"x_max":0,"o":"m 67 242 l 361 242 l 361 0 l 610 0 l 610 242 l 904 242 l 904 442 l 615 442 l 649 497 l 904 497 l 904 697 l 765 697 l 971 1047 l 700 1047 l 485 686 l 271 1047 l 0 1047 l 206 697 l 67 697 l 67 497 l 322 497 l 356 442 l 67 442 z "},"฿":{"ha":896,"x_min":0,"x_max":0,"o":"m 690 554 b 828 774 767 590 828 660 b 543 1043 828 918 728 1022 l 543 1188 l 376 1188 l 376 1047 l 81 1047 l 81 0 l 376 0 l 376 -156 l 543 -156 l 543 1 b 876 299 756 17 876 133 b 690 554 876 428 799 518 z m 307 840 l 376 840 l 376 610 l 307 610 z m 626 724 b 543 615 626 668 596 629 l 543 833 b 626 724 596 819 626 779 z m 307 440 l 376 440 l 376 207 l 307 207 z m 639 325 b 543 211 639 272 604 225 l 543 436 b 639 325 604 424 639 378 z "},"₫":{"ha":864,"x_min":0,"x_max":0,"o":"m 519 1047 l 519 974 l 376 974 l 376 785 l 519 785 l 519 643 b 346 715 489 678 432 715 b 44 403 179 715 44 582 b 346 90 44 222 179 90 b 519 161 432 90 488 126 l 519 104 l 753 104 l 753 785 l 843 785 l 843 974 l 753 974 l 753 1047 z m 279 403 b 403 526 279 472 331 526 b 524 403 474 526 524 472 b 403 279 524 333 474 279 b 279 403 331 279 279 333 z m 753 0 l 61 0 l 61 -189 l 753 -189 z "},"₣":{"ha":807,"x_min":0,"x_max":0,"o":"m 118 0 l 385 0 l 385 167 l 522 167 l 522 356 l 385 356 l 385 411 l 746 411 l 746 635 l 385 635 l 385 824 l 760 824 l 760 1047 l 118 1047 l 118 356 l 28 356 l 28 167 l 118 167 z "},"₦":{"ha":1022,"x_min":0,"x_max":0,"o":"m 28 300 l 118 300 l 118 0 l 369 0 l 369 565 l 686 0 l 904 0 l 904 300 l 994 300 l 994 500 l 904 500 l 904 556 l 994 556 l 994 756 l 904 756 l 904 1047 l 653 1047 l 653 492 l 351 1047 l 118 1047 l 118 756 l 28 756 l 28 556 l 118 556 l 118 500 l 28 500 z "},"₧":{"ha":1003,"x_min":0,"x_max":0,"o":"m 381 315 l 458 315 b 874 582 688 315 833 414 l 975 582 l 975 782 l 874 782 b 458 1047 832 949 686 1047 l 118 1047 l 118 782 l 28 782 l 28 582 l 118 582 l 118 0 l 381 0 z m 381 856 l 471 856 b 619 782 550 856 596 826 l 381 782 z m 381 508 l 381 582 l 621 582 b 471 508 597 538 551 508 z "},"₱":{"ha":989,"x_min":0,"x_max":0,"o":"m 390 301 l 461 301 b 806 433 613 301 732 347 l 961 433 l 961 633 l 883 633 b 885 674 885 646 885 660 l 885 689 l 961 689 l 961 889 l 825 889 b 461 1047 754 993 626 1047 l 118 1047 l 118 889 l 28 889 l 28 689 l 118 689 l 118 633 l 28 633 l 28 433 l 118 433 l 118 0 l 390 0 z m 390 826 l 446 826 b 600 674 547 826 600 775 b 446 522 600 574 547 522 l 390 522 z "},"₽":{"ha":888,"x_min":0,"x_max":0,"o":"m 28 301 l 28 113 l 118 113 l 118 0 l 390 0 l 390 113 l 522 113 l 522 301 l 390 301 l 390 357 l 461 357 b 871 701 704 357 871 488 b 461 1047 871 917 704 1047 l 118 1047 l 118 564 l 28 564 l 28 357 l 118 357 l 118 301 z m 460 826 b 600 701 547 826 600 778 b 460 564 600 626 547 564 l 390 564 l 390 826 z "},"₹":{"ha":765,"x_min":0,"x_max":0,"o":"m 28 364 l 138 364 l 410 0 l 738 0 l 426 396 b 628 606 529 436 600 510 l 738 606 l 738 799 l 626 799 b 600 854 619 819 611 838 l 738 854 l 738 1047 l 28 1047 l 28 854 l 235 854 b 360 799 292 854 333 832 l 28 799 l 28 606 l 360 606 b 235 550 333 572 292 550 l 28 550 z "},"₺":{"ha":843,"x_min":0,"x_max":0,"o":"m 97 0 l 440 0 b 829 451 669 0 829 136 l 557 451 b 413 224 557 304 504 224 l 356 224 l 356 326 l 472 404 l 472 611 l 356 533 l 356 599 l 472 676 l 472 883 l 356 806 l 356 1047 l 97 1047 l 97 658 l 11 600 l 11 393 l 97 451 l 97 386 l 11 328 l 11 121 l 97 179 z "},"₩":{"ha":1126,"x_min":0,"x_max":0,"o":"m 28 300 l 135 300 l 169 0 l 475 0 l 565 610 l 656 0 l 957 0 l 992 300 l 1099 300 l 1099 500 l 1014 500 l 1021 556 l 1099 556 l 1099 756 l 1043 756 l 1076 1047 l 839 1047 l 769 350 l 669 1047 l 464 1047 l 364 350 l 294 1047 l 50 1047 l 83 756 l 28 756 l 28 556 l 106 556 l 113 500 l 28 500 z "},"⁰":{"ha":558,"x_min":0,"x_max":0,"o":"m 22 757 b 279 457 22 575 136 457 b 536 757 422 457 536 575 b 279 1057 536 939 422 1057 b 22 757 136 1057 22 939 z m 193 757 b 279 896 193 835 225 896 b 365 757 333 896 365 835 b 279 618 365 679 333 618 b 193 757 225 618 193 679 z "},"¹":{"ha":463,"x_min":0,"x_max":0,"o":"m 33 467 l 442 467 l 442 614 l 329 614 l 329 1047 l 103 1047 l 15 900 l 147 900 l 147 614 l 33 614 z "},"²":{"ha":483,"x_min":0,"x_max":0,"o":"m 194 828 b 239 885 194 854 207 885 b 275 849 261 885 275 871 b 222 746 275 819 253 789 l 7 467 l 476 467 l 476 614 l 325 614 l 358 660 b 461 872 411 732 461 793 b 244 1057 461 981 369 1057 b -4 828 101 1057 11 953 z "},"³":{"ha":496,"x_min":0,"x_max":0,"o":"m 254 697 b 315 654 288 697 315 685 b 251 603 315 624 288 603 b 182 669 210 603 185 631 l 7 669 b 253 457 13 540 110 457 b 482 644 393 457 482 540 b 418 767 482 699 457 739 b 465 874 438 788 465 825 b 260 1057 465 985 389 1057 b 31 858 132 1057 44 971 l 201 858 b 253 906 207 885 222 906 b 300 864 285 906 300 888 b 253 824 300 833 275 824 l 200 824 l 200 697 z "},"⁴":{"ha":553,"x_min":0,"x_max":0,"o":"m 446 467 l 446 590 l 540 590 l 540 729 l 446 729 l 446 1047 l 246 1047 l 15 725 l 15 590 l 285 590 l 285 467 z m 175 729 l 285 892 l 285 729 z "},"⁵":{"ha":429,"x_min":0,"x_max":0,"o":"m 158 615 b 24 672 107 615 58 643 l -11 508 b 164 457 46 474 106 457 b 417 686 313 457 417 561 b 218 868 417 785 349 868 l 215 868 l 219 900 l 399 900 l 399 1047 l 94 1047 l 40 732 b 133 747 75 743 107 747 b 242 679 200 747 242 721 b 158 615 242 642 208 615 z "},"⁶":{"ha":500,"x_min":0,"x_max":0,"o":"m 488 688 b 310 899 488 797 415 883 l 426 1047 l 226 1047 l 104 890 b 13 686 36 801 13 751 b 250 457 13 556 115 457 b 488 688 388 457 488 556 z m 251 760 b 325 686 293 760 325 726 b 251 613 325 649 293 613 b 176 686 208 613 176 649 b 251 760 176 726 208 760 z "},"⁷":{"ha":504,"x_min":0,"x_max":0,"o":"m 508 1047 l 22 1047 l 22 900 l 258 900 l 67 467 l 258 467 z "},"⁸":{"ha":482,"x_min":0,"x_max":0,"o":"m 240 1057 b 35 883 133 1057 35 989 b 90 765 35 831 63 792 b 6 633 64 751 6 708 b 240 457 6 526 110 457 b 476 633 372 457 476 526 b 392 765 476 708 418 751 b 447 883 419 792 447 831 b 240 1057 447 989 349 1057 z m 240 833 b 190 882 210 833 190 851 b 240 928 190 910 210 928 b 292 882 272 928 292 910 b 240 833 292 851 272 833 z m 240 593 b 185 646 208 593 185 614 b 240 699 185 678 208 699 b 297 646 274 699 297 678 b 240 593 297 614 274 593 z "},"⁹":{"ha":500,"x_min":0,"x_max":0,"o":"m 13 828 b 190 617 13 718 85 632 l 74 468 l 274 468 l 396 625 b 488 829 464 714 488 764 b 250 1058 488 960 385 1058 b 13 828 113 1058 13 960 z m 249 756 b 175 829 207 756 175 789 b 249 903 175 867 207 903 b 324 829 292 903 324 867 b 249 756 324 789 292 756 z "},"₀":{"ha":558,"x_min":0,"x_max":0,"o":"m 22 96 b 279 -204 22 -86 136 -204 b 536 96 422 -204 536 -86 b 279 396 536 278 422 396 b 22 96 136 396 22 278 z m 193 96 b 279 235 193 174 225 235 b 365 96 333 235 365 174 b 279 -43 365 18 333 -43 b 193 96 225 -43 193 18 z "},"₁":{"ha":463,"x_min":0,"x_max":0,"o":"m 33 -194 l 442 -194 l 442 -47 l 329 -47 l 329 386 l 103 386 l 15 239 l 147 239 l 147 -47 l 33 -47 z "},"₂":{"ha":483,"x_min":0,"x_max":0,"o":"m 194 167 b 239 224 194 193 207 224 b 275 188 261 224 275 210 b 222 85 275 158 253 128 l 7 -194 l 476 -194 l 476 -47 l 325 -47 l 358 -1 b 461 211 411 71 461 132 b 244 396 461 319 369 396 b -4 167 101 396 11 292 z "},"₃":{"ha":496,"x_min":0,"x_max":0,"o":"m 254 36 b 315 -7 288 36 315 24 b 251 -58 315 -37 288 -58 b 182 8 210 -58 185 -31 l 7 8 b 253 -204 13 -121 110 -204 b 482 -17 393 -204 482 -121 b 418 106 482 38 457 78 b 465 213 438 126 465 164 b 260 396 465 324 389 396 b 31 197 132 396 44 310 l 201 197 b 253 244 207 224 222 244 b 300 203 285 244 300 226 b 253 163 300 172 275 163 l 200 163 l 200 36 z "},"₄":{"ha":553,"x_min":0,"x_max":0,"o":"m 446 -194 l 446 -71 l 540 -71 l 540 68 l 446 68 l 446 386 l 246 386 l 15 64 l 15 -71 l 285 -71 l 285 -194 z m 175 68 l 285 231 l 285 68 z "},"₅":{"ha":429,"x_min":0,"x_max":0,"o":"m 158 -46 b 24 11 107 -46 58 -18 l -11 -153 b 164 -204 46 -187 106 -204 b 417 25 313 -204 417 -100 b 218 207 417 124 349 207 l 215 207 l 219 239 l 399 239 l 399 386 l 94 386 l 40 71 b 133 86 75 82 107 86 b 242 18 200 86 242 60 b 158 -46 242 -19 208 -46 z "},"₆":{"ha":500,"x_min":0,"x_max":0,"o":"m 488 26 b 310 238 488 136 415 222 l 426 386 l 226 386 l 104 229 b 13 25 36 140 13 90 b 250 -204 13 -106 115 -204 b 488 26 388 -204 488 -106 z m 251 99 b 325 25 293 99 325 65 b 251 -49 325 -12 293 -49 b 176 25 208 -49 176 -12 b 251 99 176 65 208 99 z "},"₇":{"ha":504,"x_min":0,"x_max":0,"o":"m 508 386 l 22 386 l 22 239 l 258 239 l 67 -194 l 258 -194 z "},"₈":{"ha":482,"x_min":0,"x_max":0,"o":"m 240 396 b 35 222 133 396 35 328 b 90 104 35 169 63 131 b 6 -28 64 90 6 47 b 240 -204 6 -135 110 -204 b 476 -28 372 -204 476 -135 b 392 104 476 47 418 90 b 447 222 419 131 447 169 b 240 396 447 328 349 396 z m 240 172 b 190 221 210 172 190 190 b 240 267 190 249 210 267 b 292 221 272 267 292 249 b 240 172 292 190 272 172 z m 240 -68 b 185 -15 208 -68 185 -47 b 240 38 185 17 208 38 b 297 -15 274 38 297 17 b 240 -68 297 -47 274 -68 z "},"₉":{"ha":500,"x_min":0,"x_max":0,"o":"m 13 165 b 190 -46 13 56 85 -31 l 74 -194 l 274 -194 l 396 -37 b 488 167 464 51 488 101 b 250 396 488 297 385 396 b 13 165 113 396 13 297 z m 249 93 b 175 167 207 93 175 126 b 249 240 175 204 207 240 b 324 167 292 240 324 204 b 249 93 324 126 292 93 z "},"⁄":{"ha":281,"x_min":0,"x_max":0,"o":"m -264 72 l -129 -18 l 544 974 l 410 1064 z "},"½":{"ha":1296,"x_min":0,"x_max":0,"o":"m 254 72 l 389 -18 l 1063 974 l 928 1064 z m 33 467 l 442 467 l 442 614 l 329 614 l 329 1047 l 103 1047 l 15 900 l 147 900 l 147 614 l 33 614 z m 1007 361 b 1051 418 1007 388 1019 418 b 1088 382 1074 418 1088 404 b 1035 279 1088 353 1065 322 l 819 0 l 1289 0 l 1289 147 l 1138 147 l 1171 193 b 1274 406 1224 265 1274 326 b 1057 590 1274 514 1182 590 b 808 361 914 590 824 486 z "},"¼":{"ha":1281,"x_min":0,"x_max":0,"o":"m 254 72 l 389 -18 l 1063 974 l 928 1064 z m 33 467 l 442 467 l 442 614 l 329 614 l 329 1047 l 103 1047 l 15 900 l 147 900 l 147 614 l 33 614 z m 1174 0 l 1174 124 l 1268 124 l 1268 263 l 1174 263 l 1174 581 l 974 581 l 743 258 l 743 124 l 1013 124 l 1013 0 z m 903 263 l 1013 425 l 1013 263 z "},"¾":{"ha":1272,"x_min":0,"x_max":0,"o":"m 246 72 l 381 -18 l 1054 974 l 919 1064 z m 254 697 b 315 654 288 697 315 685 b 251 603 315 624 288 603 b 182 669 210 603 185 631 l 7 669 b 253 457 13 540 110 457 b 482 644 393 457 482 540 b 418 767 482 699 457 739 b 465 874 438 788 465 825 b 260 1057 465 985 389 1057 b 31 858 132 1057 44 971 l 201 858 b 253 906 207 885 222 906 b 300 864 285 906 300 888 b 253 824 300 833 275 824 l 200 824 l 200 697 z m 1165 0 l 1165 124 l 1260 124 l 1260 263 l 1165 263 l 1165 581 l 965 581 l 735 258 l 735 124 l 1004 124 l 1004 0 z m 894 263 l 1004 425 l 1004 263 z "},"⅓":{"ha":1308,"x_min":0,"x_max":0,"o":"m 254 72 l 389 -18 l 1063 974 l 928 1064 z m 33 467 l 442 467 l 442 614 l 329 614 l 329 1047 l 103 1047 l 15 900 l 147 900 l 147 614 l 33 614 z m 1067 231 b 1128 188 1100 231 1128 218 b 1064 136 1128 157 1100 136 b 994 203 1022 136 997 164 l 819 203 b 1065 -10 825 74 922 -10 b 1294 178 1206 -10 1294 74 b 1231 300 1294 232 1269 272 b 1278 407 1250 321 1278 358 b 1072 590 1278 518 1201 590 b 843 392 944 590 857 504 l 1014 392 b 1065 439 1019 418 1035 439 b 1113 397 1097 439 1113 421 b 1065 357 1113 367 1088 357 l 1013 357 l 1013 231 z "},"⅔":{"ha":1343,"x_min":0,"x_max":0,"o":"m 289 72 l 424 -18 l 1097 974 l 963 1064 z m 194 828 b 239 885 194 854 207 885 b 275 849 261 885 275 871 b 222 746 275 819 253 789 l 7 467 l 476 467 l 476 614 l 325 614 l 358 660 b 461 872 411 732 461 793 b 244 1057 461 981 369 1057 b -4 828 101 1057 11 953 z m 1101 231 b 1163 188 1135 231 1163 218 b 1099 136 1163 157 1135 136 b 1029 203 1057 136 1032 164 l 854 203 b 1100 -10 860 74 957 -10 b 1329 178 1240 -10 1329 74 b 1265 300 1329 232 1304 272 b 1313 407 1285 321 1313 358 b 1107 590 1313 518 1236 590 b 878 392 979 590 892 504 l 1049 392 b 1100 439 1054 418 1069 439 b 1147 397 1132 439 1147 421 b 1100 357 1147 367 1122 357 l 1047 357 l 1047 231 z "},"⅛":{"ha":1294,"x_min":0,"x_max":0,"o":"m 254 72 l 389 -18 l 1063 974 l 928 1064 z m 33 467 l 442 467 l 442 614 l 329 614 l 329 1047 l 103 1047 l 15 900 l 147 900 l 147 614 l 33 614 z m 1053 590 b 847 417 946 590 847 522 b 903 299 847 364 875 325 b 818 167 876 285 818 242 b 1053 -10 818 60 922 -10 b 1289 167 1185 -10 1289 60 b 1204 299 1289 242 1231 285 b 1260 417 1232 325 1260 364 b 1053 590 1260 522 1161 590 z m 1053 367 b 1003 415 1022 367 1003 385 b 1053 461 1003 443 1022 461 b 1104 415 1085 461 1104 443 b 1053 367 1104 385 1085 367 z m 1053 126 b 997 179 1021 126 997 147 b 1053 232 997 211 1021 232 b 1110 179 1086 232 1110 211 b 1053 126 1110 147 1086 126 z "},"⅜":{"ha":1286,"x_min":0,"x_max":0,"o":"m 246 72 l 381 -18 l 1054 974 l 919 1064 z m 254 697 b 315 654 288 697 315 685 b 251 603 315 624 288 603 b 182 669 210 603 185 631 l 7 669 b 253 457 13 540 110 457 b 482 644 393 457 482 540 b 418 767 482 699 457 739 b 465 874 438 788 465 825 b 260 1057 465 985 389 1057 b 31 858 132 1057 44 971 l 201 858 b 253 906 207 885 222 906 b 300 864 285 906 300 888 b 253 824 300 833 275 824 l 200 824 l 200 697 z m 1044 590 b 839 417 938 590 839 522 b 894 299 839 364 867 325 b 810 167 868 285 810 242 b 1044 -10 810 60 914 -10 b 1281 167 1176 -10 1281 60 b 1196 299 1281 242 1222 285 b 1251 417 1224 325 1251 364 b 1044 590 1251 522 1153 590 z m 1044 367 b 994 415 1014 367 994 385 b 1044 461 994 443 1014 461 b 1096 415 1076 461 1096 443 b 1044 367 1096 385 1076 367 z m 1044 126 b 989 179 1013 126 989 147 b 1044 232 989 211 1013 232 b 1101 179 1078 232 1101 211 b 1044 126 1101 147 1078 126 z "},"⅝":{"ha":1219,"x_min":0,"x_max":0,"o":"m 179 72 l 314 -18 l 988 974 l 853 1064 z m 158 615 b 24 672 107 615 58 643 l -11 508 b 164 457 46 474 106 457 b 417 686 313 457 417 561 b 218 868 417 785 349 868 l 215 868 l 219 900 l 399 900 l 399 1047 l 94 1047 l 40 732 b 133 747 75 743 107 747 b 242 679 200 747 242 721 b 158 615 242 642 208 615 z m 978 590 b 772 417 871 590 772 522 b 828 299 772 364 800 325 b 743 167 801 285 743 242 b 978 -10 743 60 847 -10 b 1214 167 1110 -10 1214 60 b 1129 299 1214 242 1156 285 b 1185 417 1157 325 1185 364 b 978 590 1185 522 1086 590 z m 978 367 b 928 415 947 367 928 385 b 978 461 928 443 947 461 b 1029 415 1010 461 1029 443 b 978 367 1029 385 1010 367 z m 978 126 b 922 179 946 126 922 147 b 978 232 922 211 946 232 b 1035 179 1011 232 1035 211 b 978 126 1035 147 1011 126 z "},"⅞":{"ha":1169,"x_min":0,"x_max":0,"o":"m 129 72 l 264 -18 l 938 974 l 803 1064 z m 508 1047 l 22 1047 l 22 900 l 258 900 l 67 467 l 258 467 z m 928 590 b 722 417 821 590 722 522 b 778 299 722 364 750 325 b 693 167 751 285 693 242 b 928 -10 693 60 797 -10 b 1164 167 1060 -10 1164 60 b 1079 299 1164 242 1106 285 b 1135 417 1107 325 1135 364 b 928 590 1135 522 1036 590 z m 928 367 b 878 415 897 367 878 385 b 928 461 878 443 897 461 b 979 415 960 461 979 443 b 928 367 979 385 960 367 z m 928 126 b 872 179 896 126 872 147 b 928 232 872 211 896 232 b 985 179 961 232 985 211 b 928 126 985 147 961 126 z "},"%":{"ha":1110,"x_min":0,"x_max":0,"o":"m 508 824 b 268 1064 508 958 400 1064 b 28 824 136 1064 28 958 b 268 583 28 689 136 583 b 508 824 400 583 508 689 z m 96 94 l 243 -17 l 1014 953 l 867 1064 z m 268 901 b 343 824 310 901 343 867 b 268 746 343 781 310 746 b 193 824 226 746 193 781 b 268 901 193 867 226 901 z m 601 224 b 842 -17 601 89 710 -17 b 1082 224 974 -17 1082 89 b 842 464 1082 358 974 464 b 601 224 710 464 601 358 z m 917 224 b 842 146 917 181 883 146 b 767 224 800 146 767 181 b 842 301 767 267 800 301 b 917 224 883 301 917 267 z "},"+":{"ha":833,"x_min":0,"x_max":0,"o":"m 793 383 l 793 583 l 515 583 l 515 861 l 317 861 l 317 583 l 39 583 l 39 383 l 317 383 l 317 106 l 515 106 l 515 383 z "},"−":{"ha":833,"x_min":0,"x_max":0,"o":"m 39 383 l 793 383 l 793 583 l 39 583 z "},"×":{"ha":833,"x_min":0,"x_max":0,"o":"m 276 483 l 57 264 l 199 124 l 417 342 l 635 124 l 776 265 l 558 483 l 776 703 l 635 843 l 417 625 l 199 843 l 57 703 z "},"÷":{"ha":833,"x_min":0,"x_max":0,"o":"m 417 653 b 558 792 494 653 558 713 b 417 931 558 869 494 931 b 276 792 340 931 276 869 b 417 653 276 713 340 653 z m 39 383 l 794 383 l 794 583 l 39 583 z m 417 36 b 558 175 494 36 558 97 b 417 314 558 253 494 314 b 276 175 340 314 276 253 b 417 36 276 97 340 36 z "},"=":{"ha":833,"x_min":0,"x_max":0,"o":"m 39 556 l 793 556 l 793 738 l 39 738 z m 39 232 l 793 232 l 793 413 l 39 413 z "},"<":{"ha":833,"x_min":0,"x_max":0,"o":"m 71 339 l 763 33 l 763 274 l 261 481 l 763 689 l 763 929 l 71 624 z "},">":{"ha":833,"x_min":0,"x_max":0,"o":"m 763 339 l 763 624 l 71 929 l 71 689 l 572 481 l 71 274 l 71 33 z "},"ﬀ":{"ha":997,"x_min":0,"x_max":0,"o":"m 585 0 l 843 0 l 843 497 l 982 497 l 982 719 l 843 719 l 843 832 b 931 917 843 886 876 917 b 996 899 954 917 976 911 l 996 1115 b 874 1136 965 1129 925 1136 b 690 1075 800 1136 740 1118 b 485 1136 631 1118 563 1136 b 126 803 274 1136 126 994 l 126 719 l 10 719 l 10 497 l 126 497 l 126 0 l 385 0 l 385 497 l 585 497 z m 385 719 l 385 799 b 485 914 385 868 422 914 b 585 799 547 914 585 868 l 585 719 z "},"ﬁ":{"ha":907,"x_min":0,"x_max":0,"o":"m 843 803 b 485 1136 843 994 696 1136 b 126 803 274 1136 126 994 l 126 719 l 10 719 l 10 497 l 126 497 l 126 0 l 385 0 l 385 497 l 510 497 l 510 719 l 385 719 l 385 799 b 485 914 385 868 422 914 b 585 799 547 914 585 868 l 585 788 l 843 788 z m 585 719 l 585 0 l 843 0 l 843 719 z "},"ﬃ":{"ha":1365,"x_min":0,"x_max":0,"o":"m 1301 803 b 943 1136 1301 994 1154 1136 b 714 1067 853 1136 775 1111 b 485 1136 653 1111 574 1136 b 126 803 274 1136 126 994 l 126 719 l 10 719 l 10 497 l 126 497 l 126 0 l 385 0 l 385 497 l 585 497 l 585 0 l 843 0 l 843 497 l 968 497 l 968 719 l 843 719 l 843 799 b 943 914 843 868 881 914 b 1043 799 1006 914 1043 868 l 1043 788 l 1301 788 z m 385 719 l 385 799 b 485 914 385 868 422 914 b 585 799 547 914 585 868 l 585 719 z m 1043 719 l 1043 0 l 1301 0 l 1301 719 z "},"ﬂ":{"ha":907,"x_min":0,"x_max":0,"o":"m 843 803 b 485 1136 843 994 696 1136 b 126 803 274 1136 126 994 l 126 719 l 10 719 l 10 497 l 126 497 l 126 0 l 385 0 l 385 497 l 510 497 l 510 719 l 385 719 l 385 799 b 485 914 385 868 422 914 b 585 799 547 914 585 868 l 585 0 l 843 0 z "},"ﬄ":{"ha":1365,"x_min":0,"x_max":0,"o":"m 1301 803 b 943 1136 1301 994 1154 1136 b 714 1067 853 1136 775 1111 b 485 1136 653 1111 574 1136 b 126 803 274 1136 126 994 l 126 719 l 10 719 l 10 497 l 126 497 l 126 0 l 385 0 l 385 497 l 585 497 l 585 0 l 843 0 l 843 497 l 968 497 l 968 719 l 843 719 l 843 799 b 943 914 843 868 881 914 b 1043 799 1006 914 1043 868 l 1043 0 l 1301 0 z m 385 719 l 385 799 b 485 914 385 868 422 914 b 585 799 547 914 585 868 l 585 719 z "},"̀":{"ha":0,"x_min":0,"x_max":0,"o":"m 206 883 l -26 1171 l -206 983 l 104 779 z "},"́":{"ha":0,"x_min":0,"x_max":0,"o":"m -206 883 l -104 779 l 206 983 l 26 1171 z "},"̂":{"ha":0,"x_min":0,"x_max":0,"o":"m 0 1167 l -282 881 l -164 783 l 0 907 l 164 783 l 282 881 z "},"̃":{"ha":0,"x_min":0,"x_max":0,"o":"m -99 1075 b -257 831 -207 1075 -257 963 l -104 831 b -62 885 -104 863 -87 885 b 99 825 -10 885 25 825 b 257 1069 207 825 257 939 l 104 1069 b 63 1017 104 1038 88 1017 b -99 1075 13 1017 -24 1075 z "},"̄":{"ha":0,"x_min":0,"x_max":0,"o":"m -236 861 l 236 861 l 236 1060 l -236 1060 z "},"̆":{"ha":0,"x_min":0,"x_max":0,"o":"m 0 810 b 282 1082 150 810 272 931 l 99 1108 b 0 1000 89 1036 47 1000 b -99 1108 -47 1000 -89 1036 l -282 1082 b 0 810 -272 931 -150 810 z "},"̇":{"ha":0,"x_min":0,"x_max":0,"o":"m 0 836 b 150 985 82 836 150 901 b 0 1133 150 1068 82 1133 b -150 985 -82 1133 -150 1068 b 0 836 -150 901 -82 836 z "},"̈":{"ha":0,"x_min":0,"x_max":0,"o":"m 174 836 b 318 979 253 836 318 899 b 174 1122 318 1060 253 1122 b 32 979 97 1122 32 1060 b 174 836 32 899 97 836 z m -174 836 b -32 979 -97 836 -32 899 b -174 1122 -32 1060 -97 1122 b -318 979 -253 1122 -318 1060 b -174 836 -318 899 -253 836 z "},"̊":{"ha":0,"x_min":0,"x_max":0,"o":"m 197 988 b 0 1178 197 1094 113 1178 b -197 988 -112 1178 -197 1094 b 0 797 -197 881 -112 797 b 197 988 113 797 197 881 z m -65 988 b 0 1053 -65 1024 -37 1053 b 65 988 38 1053 65 1024 b 0 922 65 951 38 922 b -65 988 -37 922 -65 951 z "},"̋":{"ha":0,"x_min":0,"x_max":0,"o":"m -319 875 l -192 801 l 18 1025 l -186 1156 z m -18 875 l 110 801 l 319 1025 l 115 1156 z "},"̌":{"ha":0,"x_min":0,"x_max":0,"o":"m 0 783 l 282 1069 l 164 1167 l 0 1043 l -164 1167 l -282 1069 z "},"̒":{"ha":0,"x_min":0,"x_max":0,"o":"m 165 1042 l 43 1124 l -167 925 l 29 793 z "},"̦":{"ha":0,"x_min":0,"x_max":0,"o":"m -167 -283 l -44 -365 l 165 -167 l -31 -35 z "},"̧":{"ha":0,"x_min":0,"x_max":0,"o":"m -167 -283 l -44 -365 l 165 -167 l -31 -35 z "},"̨":{"ha":0,"x_min":0,"x_max":0,"o":"m -62 17 b -194 -200 -139 -46 -194 -115 b -10 -364 -194 -306 -108 -364 b 194 -268 78 -364 149 -326 l 110 -135 b 40 -179 88 -162 65 -179 b 0 -139 15 -179 0 -162 b 118 0 0 -104 32 -65 z "}}}
